<svg width="100" height="100" viewBox="0 0 100 100" fill="none" xmlns="http://www.w3.org/2000/svg">
<g clip-path="url(#clip0)">
<path d="M21.6566 89.62L21.5366 89.5L21.6566 89.62Z" fill="#FF7B67"/>
<path d="M31.1441 33.95C30.9724 33.95 30.8046 34.001 30.6619 34.0966C30.5191 34.1922 30.4079 34.328 30.3422 34.487C30.2765 34.646 30.2593 34.8209 30.2928 34.9897C30.3263 35.1584 30.409 35.3135 30.5303 35.4351C30.6517 35.5568 30.8064 35.6397 30.9748 35.6732C31.1431 35.7068 31.3177 35.6896 31.4763 35.6237C31.6349 35.5579 31.7704 35.4464 31.8658 35.3033C31.9612 35.1602 32.0121 34.992 32.0121 34.82C32.0095 34.59 31.9172 34.3702 31.755 34.2076C31.5928 34.045 31.3735 33.9525 31.1441 33.95V33.95Z" fill="#FF7B67"/>
<path d="M29.0889 38.9399C29.5683 38.9399 29.9569 38.5504 29.9569 38.07C29.9569 37.5895 29.5683 37.2 29.0889 37.2C28.6095 37.2 28.2209 37.5895 28.2209 38.07C28.2209 38.5504 28.6095 38.9399 29.0889 38.9399Z" fill="#FF7B67"/>
<path d="M22.2149 40.65C22.0432 40.65 21.8754 40.701 21.7327 40.7966C21.5899 40.8922 21.4787 41.0281 21.413 41.1871C21.3473 41.3461 21.3301 41.521 21.3636 41.6898C21.3971 41.8585 21.4798 42.0135 21.6011 42.1352C21.7225 42.2569 21.8772 42.3397 22.0456 42.3733C22.2139 42.4069 22.3885 42.3896 22.5471 42.3238C22.7057 42.258 22.8412 42.1464 22.9366 42.0034C23.032 41.8603 23.0829 41.6921 23.0829 41.52C23.0803 41.2901 22.988 41.0703 22.8258 40.9077C22.6636 40.7451 22.4443 40.6526 22.2149 40.65ZM26.6745 40.65C26.5028 40.65 26.335 40.701 26.1923 40.7966C26.0495 40.8922 25.9383 41.0281 25.8726 41.1871C25.8069 41.3461 25.7897 41.521 25.8232 41.6898C25.8567 41.8585 25.9393 42.0135 26.0607 42.1352C26.1821 42.2569 26.3368 42.3397 26.5051 42.3733C26.6735 42.4069 26.848 42.3896 27.0066 42.3238C27.1652 42.258 27.3008 42.1464 27.3962 42.0034C27.4915 41.8603 27.5424 41.6921 27.5424 41.52C27.5399 41.2901 27.4476 41.0703 27.2854 40.9077C27.1231 40.7451 26.9039 40.6526 26.6745 40.65V40.65Z" fill="#FF7B67"/>
<path d="M20.1597 45.64C20.6391 45.64 21.0277 45.2505 21.0277 44.77C21.0277 44.2895 20.6391 43.9 20.1597 43.9C19.6804 43.9 19.2917 44.2895 19.2917 44.77C19.2917 45.2505 19.6804 45.64 20.1597 45.64Z" fill="#FF7B67"/>
<path d="M24.6194 45.64C25.0988 45.64 25.4874 45.2505 25.4874 44.77C25.4874 44.2895 25.0988 43.9 24.6194 43.9C24.1401 43.9 23.7515 44.2895 23.7515 44.77C23.7515 45.2505 24.1401 45.64 24.6194 45.64Z" fill="#FF7B67"/>
<path d="M17.7454 47.54C17.5738 47.54 17.406 47.5911 17.2632 47.6867C17.1205 47.7823 17.0092 47.9181 16.9435 48.0771C16.8778 48.2361 16.8606 48.411 16.8941 48.5798C16.9276 48.7485 17.0103 48.9035 17.1317 49.0252C17.2531 49.1469 17.4077 49.2298 17.5761 49.2633C17.7445 49.2969 17.919 49.2797 18.0776 49.2138C18.2362 49.148 18.3718 49.0365 18.4671 48.8934C18.5625 48.7503 18.6134 48.5821 18.6134 48.41C18.6161 48.295 18.5956 48.1807 18.5529 48.0739C18.5102 47.9671 18.4464 47.8701 18.3653 47.7888C18.2841 47.7074 18.1873 47.6434 18.0808 47.6007C17.9743 47.5579 17.8602 47.5373 17.7454 47.54V47.54ZM22.215 47.54C22.0433 47.54 21.8755 47.5911 21.7328 47.6867C21.59 47.7823 21.4788 47.9181 21.4131 48.0771C21.3474 48.2361 21.3302 48.411 21.3637 48.5798C21.3972 48.7485 21.4798 48.9035 21.6012 49.0252C21.7226 49.1469 21.8773 49.2298 22.0457 49.2633C22.214 49.2969 22.3885 49.2797 22.5471 49.2138C22.7057 49.148 22.8413 49.0365 22.9367 48.8934C23.032 48.7503 23.083 48.5821 23.083 48.41C23.0843 48.2954 23.0628 48.1817 23.0196 48.0755C22.9765 47.9694 22.9126 47.8729 22.8317 47.7919C22.7508 47.7108 22.6546 47.6468 22.5487 47.6035C22.4428 47.5603 22.3293 47.5387 22.215 47.54V47.54ZM15.6902 50.79C15.5186 50.79 15.3508 50.8411 15.208 50.9367C15.0653 51.0323 14.954 51.1681 14.8883 51.3271C14.8226 51.4861 14.8055 51.661 14.8389 51.8298C14.8724 51.9985 14.9551 52.1535 15.0765 52.2752C15.1979 52.3969 15.3525 52.4798 15.5209 52.5133C15.6893 52.5469 15.8638 52.5297 16.0224 52.4638C16.181 52.398 16.3166 52.2865 16.4119 52.1434C16.5073 52.0003 16.5582 51.8321 16.5582 51.66C16.5556 51.4301 16.4633 51.2103 16.3011 51.0477C16.1389 50.8851 15.9196 50.7926 15.6902 50.79V50.79ZM20.1598 50.79C19.9881 50.79 19.8203 50.8411 19.6776 50.9367C19.5348 51.0323 19.4236 51.1681 19.3579 51.3271C19.2922 51.4861 19.275 51.661 19.3085 51.8298C19.342 51.9985 19.4247 52.1535 19.546 52.2752C19.6674 52.3969 19.8221 52.4798 19.9905 52.5133C20.1588 52.5469 20.3333 52.5297 20.4919 52.4638C20.6505 52.398 20.7861 52.2865 20.8815 52.1434C20.9769 52.0003 21.0278 51.8321 21.0278 51.66C21.0252 51.4301 20.9329 51.2103 20.7707 51.0477C20.6085 50.8851 20.3892 50.7926 20.1598 50.79V50.79ZM17.7454 54.24C17.5738 54.24 17.406 54.2911 17.2632 54.3867C17.1205 54.4823 17.0092 54.6181 16.9435 54.7771C16.8778 54.9361 16.8606 55.111 16.8941 55.2798C16.9276 55.4485 17.0103 55.6035 17.1317 55.7252C17.2531 55.8469 17.4077 55.9298 17.5761 55.9633C17.7445 55.9969 17.919 55.9797 18.0776 55.9138C18.2362 55.848 18.3718 55.7365 18.4671 55.5934C18.5625 55.4503 18.6134 55.2821 18.6134 55.11C18.6108 54.8801 18.5185 54.6603 18.3563 54.4977C18.1941 54.3351 17.9748 54.2426 17.7454 54.24ZM22.215 54.24C22.0421 54.2361 21.872 54.2839 21.7264 54.3775C21.5809 54.4711 21.4665 54.6062 21.398 54.7653C21.3296 54.9245 21.3101 55.1006 21.3421 55.2709C21.3741 55.4412 21.4562 55.5981 21.5778 55.7214C21.6993 55.8447 21.8549 55.9287 22.0244 55.9628C22.194 55.9969 22.3698 55.9794 22.5294 55.9127C22.689 55.8459 22.825 55.7329 22.9201 55.5881C23.0152 55.4433 23.0649 55.2734 23.063 55.1C23.058 54.8752 22.9674 54.6609 22.8097 54.5009C22.652 54.341 22.4392 54.2476 22.215 54.24V54.24Z" fill="#FF7B67"/>
<path d="M15.6902 59.23C16.1696 59.23 16.5582 58.8405 16.5582 58.36C16.5582 57.8795 16.1696 57.49 15.6902 57.49C15.2109 57.49 14.8223 57.8795 14.8223 58.36C14.8223 58.8405 15.2109 59.23 15.6902 59.23Z" fill="#FF7B67"/>
<path d="M20.1597 59.23C20.6391 59.23 21.0277 58.8405 21.0277 58.36C21.0277 57.8795 20.6391 57.49 20.1597 57.49C19.6804 57.49 19.2917 57.8795 19.2917 58.36C19.2917 58.8405 19.6804 59.23 20.1597 59.23Z" fill="#FF7B67"/>
<path d="M13.2759 60.94C13.1043 60.94 12.9364 60.991 12.7937 61.0866C12.651 61.1822 12.5397 61.3181 12.474 61.4771C12.4083 61.636 12.3911 61.811 12.4246 61.9797C12.4581 62.1485 12.5408 62.3035 12.6622 62.4252C12.7836 62.5469 12.9382 62.6297 13.1066 62.6633C13.275 62.6969 13.4495 62.6796 13.6081 62.6138C13.7667 62.5479 13.9022 62.4364 13.9976 62.2933C14.093 62.1503 14.1439 61.9821 14.1439 61.81C14.1452 61.6954 14.1237 61.5816 14.0806 61.4755C14.0374 61.3693 13.9735 61.2729 13.8927 61.1918C13.8118 61.1108 13.7156 61.0467 13.6097 61.0035C13.5038 60.9602 13.3903 60.9387 13.2759 60.94V60.94ZM17.7455 60.94C17.5738 60.94 17.406 60.991 17.2633 61.0866C17.1205 61.1822 17.0093 61.3181 16.9436 61.4771C16.8779 61.636 16.8607 61.811 16.8942 61.9797C16.9277 62.1485 17.0103 62.3035 17.1317 62.4252C17.2531 62.5469 17.4078 62.6297 17.5761 62.6633C17.7445 62.6969 17.919 62.6796 18.0776 62.6138C18.2362 62.5479 18.3718 62.4364 18.4672 62.2933C18.5625 62.1503 18.6135 61.9821 18.6135 61.81C18.6109 61.5801 18.5186 61.3603 18.3564 61.1977C18.1941 61.0351 17.9749 60.9426 17.7455 60.94V60.94ZM22.215 60.94C22.0434 60.94 21.8756 60.991 21.7328 61.0866C21.5901 61.1822 21.4788 61.3181 21.4131 61.4771C21.3474 61.636 21.3302 61.811 21.3637 61.9797C21.3972 62.1485 21.4799 62.3035 21.6013 62.4252C21.7227 62.5469 21.8773 62.6297 22.0457 62.6633C22.2141 62.6969 22.3886 62.6796 22.5472 62.6138C22.7058 62.5479 22.8414 62.4364 22.9367 62.2933C23.0321 62.1503 23.083 61.9821 23.083 61.81C23.0804 61.5801 22.9881 61.3603 22.8259 61.1977C22.6637 61.0351 22.4444 60.9426 22.215 60.94V60.94Z" fill="#FF7B67"/>
<path d="M15.6902 66.12C16.1696 66.12 16.5582 65.7305 16.5582 65.25C16.5582 64.7695 16.1696 64.38 15.6902 64.38C15.2109 64.38 14.8223 64.7695 14.8223 65.25C14.8223 65.7305 15.2109 66.12 15.6902 66.12Z" fill="#FF7B67"/>
<path d="M20.1597 66.12C20.6391 66.12 21.0277 65.7305 21.0277 65.25C21.0277 64.7695 20.6391 64.38 20.1597 64.38C19.6804 64.38 19.2917 64.7695 19.2917 65.25C19.2917 65.7305 19.6804 66.12 20.1597 66.12Z" fill="#FF7B67"/>
<path d="M13.2759 67.83C13.1043 67.83 12.9364 67.881 12.7937 67.9766C12.651 68.0722 12.5397 68.208 12.474 68.367C12.4083 68.526 12.3911 68.7009 12.4246 68.8697C12.4581 69.0384 12.5408 69.1935 12.6622 69.3151C12.7836 69.4368 12.9382 69.5197 13.1066 69.5532C13.275 69.5868 13.4495 69.5696 13.6081 69.5037C13.7667 69.4379 13.9022 69.3264 13.9976 69.1833C14.093 69.0402 14.1439 68.872 14.1439 68.6999C14.1466 68.5849 14.1261 68.4706 14.0834 68.3638C14.0407 68.257 13.9769 68.16 13.8958 68.0787C13.8146 67.9973 13.7178 67.9333 13.6113 67.8906C13.5048 67.8478 13.3907 67.8272 13.2759 67.83V67.83ZM17.7455 67.83C17.5738 67.83 17.406 67.881 17.2633 67.9766C17.1205 68.0722 17.0093 68.208 16.9436 68.367C16.8779 68.526 16.8607 68.7009 16.8942 68.8697C16.9277 69.0384 17.0103 69.1935 17.1317 69.3151C17.2531 69.4368 17.4078 69.5197 17.5761 69.5532C17.7445 69.5868 17.919 69.5696 18.0776 69.5037C18.2362 69.4379 18.3718 69.3264 18.4672 69.1833C18.5625 69.0402 18.6135 68.872 18.6135 68.6999C18.6162 68.5849 18.5956 68.4706 18.553 68.3638C18.5103 68.257 18.4465 68.16 18.3653 68.0787C18.2842 67.9973 18.1874 67.9333 18.0808 67.8906C17.9743 67.8478 17.8602 67.8272 17.7455 67.83V67.83ZM22.215 67.83C22.0434 67.83 21.8756 67.881 21.7328 67.9766C21.5901 68.0722 21.4788 68.208 21.4131 68.367C21.3474 68.526 21.3302 68.7009 21.3637 68.8697C21.3972 69.0384 21.4799 69.1935 21.6013 69.3151C21.7227 69.4368 21.8773 69.5197 22.0457 69.5532C22.2141 69.5868 22.3886 69.5696 22.5472 69.5037C22.7058 69.4379 22.8414 69.3264 22.9367 69.1833C23.0321 69.0402 23.083 68.872 23.083 68.6999C23.0843 68.5853 23.0628 68.4716 23.0197 68.3654C22.9765 68.2593 22.9126 68.1628 22.8318 68.0818C22.7509 68.0007 22.6547 67.9367 22.5488 67.8934C22.4429 67.8502 22.3294 67.8286 22.215 67.83V67.83ZM15.6903 71.0999C15.5186 71.0999 15.3508 71.151 15.2081 71.2466C15.0653 71.3422 14.9541 71.478 14.8884 71.637C14.8227 71.796 14.8055 71.9709 14.839 72.1397C14.8725 72.3084 14.9552 72.4635 15.0765 72.5851C15.1979 72.7068 15.3526 72.7897 15.521 72.8232C15.6893 72.8568 15.8638 72.8396 16.0224 72.7737C16.181 72.7079 16.3166 72.5964 16.412 72.4533C16.5074 72.3102 16.5583 72.142 16.5583 71.97C16.5557 71.74 16.4634 71.5202 16.3012 71.3576C16.139 71.195 15.9197 71.1025 15.6903 71.0999V71.0999ZM20.1598 71.0999C19.9882 71.0999 19.8204 71.151 19.6776 71.2466C19.5349 71.3422 19.4236 71.478 19.3579 71.637C19.2922 71.796 19.2751 71.9709 19.3085 72.1397C19.342 72.3084 19.4247 72.4635 19.5461 72.5851C19.6675 72.7068 19.8221 72.7897 19.9905 72.8232C20.1589 72.8568 20.3334 72.8396 20.492 72.7737C20.6506 72.7079 20.7862 72.5964 20.8815 72.4533C20.9769 72.3102 21.0278 72.142 21.0278 71.97C21.0252 71.74 20.9329 71.5202 20.7707 71.3576C20.6085 71.195 20.3892 71.1025 20.1598 71.0999V71.0999ZM17.7455 74.54C17.5738 74.54 17.406 74.591 17.2633 74.6866C17.1205 74.7822 17.0093 74.918 16.9436 75.077C16.8779 75.236 16.8607 75.4109 16.8942 75.5797C16.9277 75.7484 17.0103 75.9035 17.1317 76.0251C17.2531 76.1468 17.4078 76.2297 17.5761 76.2632C17.7445 76.2968 17.919 76.2796 18.0776 76.2137C18.2362 76.1479 18.3718 76.0364 18.4672 75.8933C18.5625 75.7502 18.6135 75.582 18.6135 75.4099C18.6148 75.2944 18.5934 75.1797 18.5505 75.0724C18.5075 74.9651 18.444 74.8674 18.3634 74.7847C18.2828 74.7021 18.1867 74.6362 18.0807 74.5907C17.9747 74.5453 17.8608 74.5213 17.7455 74.5199V74.54ZM22.215 74.54C22.0434 74.54 21.8756 74.591 21.7328 74.6866C21.5901 74.7822 21.4788 74.918 21.4131 75.077C21.3474 75.236 21.3302 75.4109 21.3637 75.5797C21.3972 75.7484 21.4799 75.9035 21.6013 76.0251C21.7227 76.1468 21.8773 76.2297 22.0457 76.2632C22.2141 76.2968 22.3886 76.2796 22.5472 76.2137C22.7058 76.1479 22.8414 76.0364 22.9367 75.8933C23.0321 75.7502 23.083 75.582 23.083 75.4099C23.0843 75.2944 23.0629 75.1797 23.02 75.0724C22.9771 74.9651 22.9135 74.8674 22.8329 74.7847C22.7523 74.7021 22.6563 74.6362 22.5503 74.5907C22.4442 74.5453 22.3303 74.5213 22.215 74.5199V74.54ZM15.6903 77.79C15.5186 77.79 15.3508 77.841 15.2081 77.9366C15.0653 78.0322 14.9541 78.168 14.8884 78.327C14.8227 78.486 14.8055 78.6609 14.839 78.8297C14.8725 78.9984 14.9552 79.1535 15.0765 79.2751C15.1979 79.3968 15.3526 79.4797 15.521 79.5132C15.6893 79.5468 15.8638 79.5296 16.0224 79.4637C16.181 79.3979 16.3166 79.2864 16.412 79.1433C16.5074 79.0002 16.5583 78.832 16.5583 78.6599C16.5596 78.5444 16.5382 78.4297 16.4953 78.3224C16.4524 78.2151 16.3888 78.1174 16.3082 78.0348C16.2276 77.9521 16.1315 77.8862 16.0255 77.8407C15.9195 77.7953 15.8056 77.7713 15.6903 77.7699V77.79ZM20.1598 77.79C19.9882 77.79 19.8204 77.841 19.6776 77.9366C19.5349 78.0322 19.4236 78.168 19.3579 78.327C19.2922 78.486 19.2751 78.6609 19.3085 78.8297C19.342 78.9984 19.4247 79.1535 19.5461 79.2751C19.6675 79.3968 19.8221 79.4797 19.9905 79.5132C20.1589 79.5468 20.3334 79.5296 20.492 79.4637C20.6506 79.3979 20.7862 79.2864 20.8815 79.1433C20.9769 79.0002 21.0278 78.832 21.0278 78.6599C21.0291 78.5444 21.0077 78.4297 20.9648 78.3224C20.9219 78.2151 20.8583 78.1174 20.7777 78.0348C20.6971 77.9521 20.6011 77.8862 20.4951 77.8407C20.389 77.7953 20.2751 77.7713 20.1598 77.7699V77.79ZM24.6194 77.79C24.4477 77.79 24.2799 77.841 24.1372 77.9366C23.9945 78.0322 23.8832 78.168 23.8175 78.327C23.7518 78.486 23.7346 78.6609 23.7681 78.8297C23.8016 78.9984 23.8843 79.1535 24.0057 79.2751C24.1271 79.3968 24.2817 79.4797 24.4501 79.5132C24.6185 79.5468 24.793 79.5296 24.9516 79.4637C25.1102 79.3979 25.2457 79.2864 25.3411 79.1433C25.4365 79.0002 25.4874 78.832 25.4874 78.6599C25.4887 78.5444 25.4673 78.4297 25.4244 78.3224C25.3815 78.2151 25.3179 78.1174 25.2373 78.0348C25.1567 77.9521 25.0607 77.8862 24.9546 77.8407C24.8486 77.7953 24.7347 77.7713 24.6194 77.7699V77.79ZM26.6746 76.25C26.784 76.2537 26.893 76.2343 26.9945 76.1929C27.0959 76.1516 27.1875 76.0892 27.2632 76.01C26.944 75.53 26.6746 75.01 26.3953 74.58C26.2055 74.6478 26.0456 74.7803 25.9436 74.9544C25.8416 75.1285 25.8039 75.3331 25.8372 75.5322C25.8706 75.7313 25.9727 75.9124 26.1258 76.0436C26.2789 76.1748 26.4732 76.2479 26.6746 76.25V76.25ZM24.6194 72.7999C24.7558 72.7917 24.889 72.7556 25.0109 72.6936C25.1327 72.6317 25.2406 72.5454 25.3278 72.4399C25.1282 71.9999 24.9287 71.5699 24.7391 71.0899H24.6194C24.39 71.0925 24.1707 71.185 24.0085 71.3476C23.8463 71.5102 23.754 71.73 23.7514 71.96C23.7567 72.1863 23.8508 72.4014 24.0132 72.5587C24.1757 72.716 24.3936 72.8026 24.6194 72.7999V72.7999ZM29.0491 79.5199C29.2491 79.5164 29.4422 79.446 29.5978 79.32C29.2386 78.88 28.8894 78.41 28.5303 77.97C28.4138 78.0466 28.3193 78.1524 28.2563 78.277C28.1933 78.4016 28.1639 78.5405 28.1711 78.68C28.1838 78.9055 28.2815 79.1178 28.4445 79.2738C28.6076 79.4298 28.8237 79.5178 29.0491 79.5199V79.5199ZM17.7455 81.38C17.5738 81.38 17.406 81.431 17.2633 81.5266C17.1205 81.6222 17.0093 81.758 16.9436 81.917C16.8779 82.076 16.8607 82.2509 16.8942 82.4197C16.9277 82.5884 17.0103 82.7435 17.1317 82.8651C17.2531 82.9868 17.4078 83.0697 17.5761 83.1032C17.7445 83.1368 17.919 83.1196 18.0776 83.0537C18.2362 82.9879 18.3718 82.8764 18.4672 82.7333C18.5625 82.5902 18.6135 82.422 18.6135 82.25C18.6109 82.02 18.5186 81.8002 18.3564 81.6376C18.1941 81.475 17.9749 81.3825 17.7455 81.38ZM22.215 81.38C22.0434 81.38 21.8756 81.431 21.7328 81.5266C21.5901 81.6222 21.4788 81.758 21.4131 81.917C21.3474 82.076 21.3302 82.2509 21.3637 82.4197C21.3972 82.5884 21.4799 82.7435 21.6013 82.8651C21.7227 82.9868 21.8773 83.0697 22.0457 83.1032C22.2141 83.1368 22.3886 83.1196 22.5472 83.0537C22.7058 82.9879 22.8414 82.8764 22.9367 82.7333C23.0321 82.5902 23.083 82.422 23.083 82.25C23.0804 82.02 22.9881 81.8002 22.8259 81.6376C22.6637 81.475 22.4444 81.3825 22.215 81.38ZM26.6746 81.38C26.5029 81.38 26.3351 81.431 26.1924 81.5266C26.0497 81.6222 25.9384 81.758 25.8727 81.917C25.807 82.076 25.7898 82.2509 25.8233 82.4197C25.8568 82.5884 25.9395 82.7435 26.0609 82.8651C26.1822 82.9868 26.3369 83.0697 26.5053 83.1032C26.6736 83.1368 26.8482 83.1196 27.0068 83.0537C27.1654 82.9879 27.3009 82.8764 27.3963 82.7333C27.4917 82.5902 27.5426 82.422 27.5426 82.25C27.54 82.02 27.4477 81.8002 27.2855 81.6376C27.1233 81.475 26.904 81.3825 26.6746 81.38Z" fill="#FF7B67"/>
<path d="M20.1597 86.41C20.6391 86.41 21.0277 86.0205 21.0277 85.54C21.0277 85.0596 20.6391 84.67 20.1597 84.67C19.6804 84.67 19.2917 85.0596 19.2917 85.54C19.2917 86.0205 19.6804 86.41 20.1597 86.41Z" fill="#FF7B67"/>
<path d="M24.6194 86.41C25.0988 86.41 25.4874 86.0205 25.4874 85.54C25.4874 85.0596 25.0988 84.67 24.6194 84.67C24.1401 84.67 23.7515 85.0596 23.7515 85.54C23.7515 86.0205 24.1401 86.41 24.6194 86.41Z" fill="#FF7B67"/>
<path d="M29.0889 86.41C29.5683 86.41 29.9569 86.0205 29.9569 85.54C29.9569 85.0596 29.5683 84.67 29.0889 84.67C28.6095 84.67 28.2209 85.0596 28.2209 85.54C28.2209 86.0205 28.6095 86.41 29.0889 86.41Z" fill="#FF7B67"/>
<path d="M33.7181 84.67C33.5465 84.67 33.3787 84.7211 33.2359 84.8167C33.0932 84.9123 32.9819 85.0481 32.9162 85.2071C32.8506 85.3661 32.8334 85.541 32.8669 85.7098C32.9003 85.8785 32.983 86.0336 33.1044 86.1552C33.2258 86.2769 33.3804 86.3598 33.5488 86.3933C33.7172 86.4269 33.8917 86.4097 34.0503 86.3438C34.2089 86.278 34.3445 86.1665 34.4398 86.0234C34.5352 85.8803 34.5861 85.7121 34.5861 85.54C34.5835 85.3101 34.4912 85.0903 34.329 84.9277C34.1668 84.7651 33.9475 84.6726 33.7181 84.67V84.67ZM26.6746 88.1C26.5029 88.1 26.3351 88.1511 26.1924 88.2467C26.0497 88.3423 25.9384 88.4781 25.8727 88.6371C25.807 88.7961 25.7898 88.971 25.8233 89.1398C25.8568 89.3085 25.9395 89.4636 26.0609 89.5852C26.1823 89.7069 26.3369 89.7898 26.5053 89.8233C26.6736 89.8569 26.8482 89.8397 27.0068 89.7738C27.1654 89.708 27.3009 89.5965 27.3963 89.4534C27.4917 89.3103 27.5426 89.1421 27.5426 88.97C27.54 88.7401 27.4477 88.5203 27.2855 88.3577C27.1233 88.1951 26.904 88.1026 26.6746 88.1V88.1ZM31.1442 88.1C30.9725 88.1 30.8047 88.1511 30.6619 88.2467C30.5192 88.3423 30.408 88.4781 30.3423 88.6371C30.2766 88.7961 30.2594 88.971 30.2929 89.1398C30.3264 89.3085 30.409 89.4636 30.5304 89.5852C30.6518 89.7069 30.8065 89.7898 30.9748 89.8233C31.1432 89.8569 31.3177 89.8397 31.4763 89.7738C31.6349 89.708 31.7705 89.5965 31.8659 89.4534C31.9612 89.3103 32.0121 89.1421 32.0121 88.97C32.0095 88.7401 31.9173 88.5203 31.755 88.3577C31.5928 88.1951 31.3736 88.1026 31.1442 88.1V88.1Z" fill="#FF7B67"/>
<path d="M35.7732 89.82C36.2526 89.82 36.6412 89.4304 36.6412 88.95C36.6412 88.4695 36.2526 88.08 35.7732 88.08C35.2939 88.08 34.9053 88.4695 34.9053 88.95C34.9053 89.4304 35.2939 89.82 35.7732 89.82Z" fill="#FF7B67"/>
<path d="M40.2327 89.82C40.7121 89.82 41.1007 89.4304 41.1007 88.95C41.1007 88.4695 40.7121 88.08 40.2327 88.08C39.7533 88.08 39.3647 88.4695 39.3647 88.95C39.3647 89.4304 39.7533 89.82 40.2327 89.82Z" fill="#FF7B67"/>
<path d="M44.7025 89.82C44.8261 89.8158 44.9479 89.7887 45.0616 89.74C44.6626 89.62 44.3134 89.5 43.9143 89.34C43.9933 89.4812 44.1074 89.5997 44.2455 89.6838C44.3835 89.7679 44.541 89.8148 44.7025 89.82V89.82ZM66.2022 89.1C66.2415 89.2905 66.3455 89.4614 66.4965 89.5836C66.6475 89.7058 66.8362 89.7717 67.0303 89.77C67.2597 89.7674 67.4789 89.6749 67.6412 89.5123C67.8034 89.3497 67.8957 89.1299 67.8982 88.9C67.9012 88.7448 67.8596 88.5921 67.7785 88.46C67.2298 88.75 66.721 88.95 66.2022 89.1Z" fill="#FF7B67"/>
<path d="M29.0889 93.1C29.5683 93.1 29.9569 92.7105 29.9569 92.23C29.9569 91.7495 29.5683 91.36 29.0889 91.36C28.6095 91.36 28.2209 91.7495 28.2209 92.23C28.2209 92.7105 28.6095 93.1 29.0889 93.1Z" fill="#FF7B67"/>
<path d="M33.7181 91.36C33.5464 91.36 33.3786 91.411 33.2359 91.5066C33.0931 91.6022 32.9819 91.7381 32.9162 91.897C32.8505 92.056 32.8333 92.2309 32.8668 92.3997C32.9003 92.5685 32.9829 92.7235 33.1043 92.8452C33.2257 92.9668 33.3804 93.0497 33.5487 93.0833C33.7171 93.1168 33.8916 93.0996 34.0502 93.0338C34.2088 92.9679 34.3444 92.8564 34.4398 92.7133C34.5351 92.5703 34.586 92.402 34.586 92.23C34.5834 92 34.4912 91.7803 34.3289 91.6177C34.1667 91.4551 33.9475 91.3626 33.7181 91.36V91.36ZM38.1776 91.36C38.006 91.36 37.8382 91.411 37.6954 91.5066C37.5527 91.6022 37.4414 91.7381 37.3757 91.897C37.3101 92.056 37.2929 92.2309 37.3264 92.3997C37.3598 92.5685 37.4425 92.7235 37.5639 92.8452C37.6853 92.9668 37.8399 93.0497 38.0083 93.0833C38.1767 93.1168 38.3512 93.0996 38.5098 93.0338C38.6684 92.9679 38.804 92.8564 38.8993 92.7133C38.9947 92.5703 39.0456 92.402 39.0456 92.23C39.043 92 38.9507 91.7803 38.7885 91.6177C38.6263 91.4551 38.407 91.3626 38.1776 91.36Z" fill="#FF7B67"/>
<path d="M42.6473 93.1C43.1266 93.1 43.5152 92.7105 43.5152 92.23C43.5152 91.7495 43.1266 91.36 42.6473 91.36C42.1679 91.36 41.7793 91.7495 41.7793 92.23C41.7793 92.7105 42.1679 93.1 42.6473 93.1Z" fill="#FF7B67"/>
<path d="M47.1168 91.36C46.9451 91.36 46.7773 91.411 46.6345 91.5066C46.4918 91.6022 46.3805 91.7381 46.3148 91.897C46.2492 92.056 46.232 92.2309 46.2655 92.3997C46.2989 92.5685 46.3816 92.7235 46.503 92.8452C46.6244 92.9668 46.779 93.0497 46.9474 93.0833C47.1158 93.1168 47.2903 93.0996 47.4489 93.0338C47.6075 92.9679 47.7431 92.8564 47.8384 92.7133C47.9338 92.5703 47.9847 92.402 47.9847 92.23C47.9821 92 47.8898 91.7803 47.7276 91.6177C47.5654 91.4551 47.3461 91.3626 47.1168 91.36V91.36ZM51.5763 91.36C51.4047 91.36 51.2368 91.411 51.0941 91.5066C50.9514 91.6022 50.8401 91.7381 50.7744 91.897C50.7087 92.056 50.6915 92.2309 50.725 92.3997C50.7585 92.5685 50.8412 92.7235 50.9626 92.8452C51.084 92.9668 51.2386 93.0497 51.407 93.0833C51.5754 93.1168 51.7499 93.0996 51.9085 93.0338C52.0671 92.9679 52.2026 92.8564 52.298 92.7133C52.3934 92.5703 52.4443 92.402 52.4443 92.23C52.4417 92 52.3494 91.7803 52.1872 91.6177C52.025 91.4551 51.8057 91.3626 51.5763 91.36V91.36Z" fill="#FF7B67"/>
<path d="M56.046 93.1C56.5253 93.1 56.9139 92.7105 56.9139 92.23C56.9139 91.7495 56.5253 91.36 56.046 91.36C55.5666 91.36 55.178 91.7495 55.178 92.23C55.178 92.7105 55.5666 93.1 56.046 93.1Z" fill="#FF7B67"/>
<path d="M60.5154 93.1C60.9948 93.1 61.3834 92.7105 61.3834 92.23C61.3834 91.7495 60.9948 91.36 60.5154 91.36C60.0361 91.36 59.6475 91.7495 59.6475 92.23C59.6475 92.7105 60.0361 93.1 60.5154 93.1Z" fill="#FF7B67"/>
<path d="M64.9849 93.1C65.4643 93.1 65.8529 92.7105 65.8529 92.23C65.8529 91.7495 65.4643 91.36 64.9849 91.36C64.5055 91.36 64.1169 91.7495 64.1169 92.23C64.1169 92.7105 64.5055 93.1 64.9849 93.1Z" fill="#FF7B67"/>
<path d="M35.7732 96.5501C36.2526 96.5501 36.6412 96.1605 36.6412 95.6801C36.6412 95.1996 36.2526 94.8101 35.7732 94.8101C35.2939 94.8101 34.9053 95.1996 34.9053 95.6801C34.9053 96.1605 35.2939 96.5501 35.7732 96.5501Z" fill="#FF7B67"/>
<path d="M40.2327 96.5501C40.7121 96.5501 41.1007 96.1605 41.1007 95.6801C41.1007 95.1996 40.7121 94.8101 40.2327 94.8101C39.7533 94.8101 39.3647 95.1996 39.3647 95.6801C39.3647 96.1605 39.7533 96.5501 40.2327 96.5501Z" fill="#FF7B67"/>
<path d="M44.7024 96.5501C45.1818 96.5501 45.5704 96.1605 45.5704 95.6801C45.5704 95.1996 45.1818 94.8101 44.7024 94.8101C44.2231 94.8101 43.8345 95.1996 43.8345 95.6801C43.8345 96.1605 44.2231 96.5501 44.7024 96.5501Z" fill="#FF7B67"/>
<path d="M49.1719 96.5501C49.6513 96.5501 50.0399 96.1605 50.0399 95.6801C50.0399 95.1996 49.6513 94.8101 49.1719 94.8101C48.6926 94.8101 48.304 95.1996 48.304 95.6801C48.304 96.1605 48.6926 96.5501 49.1719 96.5501Z" fill="#FF7B67"/>
<path d="M53.6415 94.81C53.4699 94.81 53.302 94.861 53.1593 94.9566C53.0166 95.0522 52.9053 95.1881 52.8396 95.347C52.7739 95.506 52.7567 95.6809 52.7902 95.8497C52.8237 96.0185 52.9064 96.1735 53.0278 96.2952C53.1492 96.4168 53.3038 96.4997 53.4722 96.5333C53.6406 96.5668 53.8151 96.5496 53.9737 96.4837C54.1323 96.4179 54.2678 96.3064 54.3632 96.1633C54.4586 96.0203 54.5095 95.852 54.5095 95.68C54.5069 95.45 54.4146 95.2303 54.2524 95.0677C54.0902 94.9051 53.8709 94.8126 53.6415 94.81V94.81ZM58.1011 94.81C57.9294 94.81 57.7616 94.861 57.6189 94.9566C57.4761 95.0522 57.3649 95.1881 57.2992 95.347C57.2335 95.506 57.2163 95.6809 57.2498 95.8497C57.2833 96.0185 57.366 96.1735 57.4874 96.2952C57.6087 96.4168 57.7634 96.4997 57.9318 96.5333C58.1001 96.5668 58.2747 96.5496 58.4333 96.4837C58.5919 96.4179 58.7274 96.3064 58.8228 96.1633C58.9182 96.0203 58.9691 95.852 58.9691 95.68C58.9665 95.45 58.8742 95.2303 58.712 95.0677C58.5498 94.9051 58.3305 94.8126 58.1011 94.81V94.81ZM47.1268 98.26C46.9543 98.2621 46.7863 98.3156 46.6443 98.4138C46.5024 98.512 46.3928 98.6504 46.3296 98.8112C46.2664 98.9721 46.2525 99.1482 46.2896 99.3171C46.3267 99.4859 46.4132 99.6399 46.5379 99.7592C46.6627 99.8786 46.8201 99.958 46.9901 99.9873C47.1601 100.017 47.335 99.9945 47.4924 99.9238C47.6498 99.853 47.7826 99.7369 47.8738 99.5901C47.9651 99.4434 48.0106 99.2728 48.0047 99.1C48.0021 98.87 47.9098 98.6503 47.7476 98.4877C47.5854 98.3251 47.3661 98.2326 47.1367 98.23L47.1268 98.26ZM34.4264 31.85C34.1439 31.9742 33.854 32.081 33.5585 32.17H33.7181C33.8543 32.1891 33.9931 32.1692 34.1184 32.1126C34.2438 32.0559 34.3506 31.9649 34.4264 31.85V31.85ZM24.8987 37.24C24.5396 37.52 24.1505 37.83 23.7913 38.15C23.809 38.3568 23.9043 38.5493 24.0579 38.6885C24.2116 38.8277 24.4123 38.9033 24.6194 38.9C24.8238 38.9056 25.0233 38.837 25.1812 38.7069C25.3391 38.5767 25.4448 38.3938 25.4789 38.1917C25.5129 37.9896 25.4729 37.782 25.3663 37.6071C25.2597 37.4322 25.0936 37.3019 24.8987 37.24ZM13.2759 54.24H13.0863C12.9267 54.72 12.807 55.24 12.6474 55.71C12.7242 55.7878 12.816 55.8492 12.9172 55.8904C13.0183 55.9317 13.1268 55.9519 13.236 55.95C13.4654 55.9474 13.6847 55.8549 13.8469 55.6923C14.0091 55.5297 14.1014 55.3099 14.104 55.08C14.1053 54.9701 14.0848 54.8611 14.0438 54.7593C14.0028 54.6574 13.942 54.5647 13.865 54.4866C13.788 54.4085 13.6962 54.3464 13.5951 54.3041C13.494 54.2618 13.3855 54.24 13.2759 54.24V54.24ZM11.5 64.42V64.86C11.4801 65.2564 11.4801 65.6536 11.5 66.05C11.6687 65.9973 11.8165 65.8925 11.9222 65.7506C12.0279 65.6088 12.0862 65.437 12.0887 65.26C12.0755 65.0797 12.0137 64.9064 11.9101 64.7585C11.8064 64.6106 11.6647 64.4936 11.5 64.42V64.42ZM13.2759 74.52C13.1211 74.517 12.9688 74.5587 12.8369 74.64C12.9965 75.19 13.1562 75.71 13.3557 76.22C13.4671 76.2147 13.5763 76.1875 13.6772 76.14C13.7781 76.0924 13.8686 76.0254 13.9437 75.9427C14.0187 75.8601 14.0768 75.7634 14.1145 75.6583C14.1523 75.5532 14.1691 75.4416 14.1638 75.33C14.1586 75.2184 14.1315 75.1089 14.084 75.0077C14.0365 74.9066 13.9697 74.8159 13.8872 74.7407C13.8048 74.6654 13.7083 74.6072 13.6035 74.5694C13.4986 74.5315 13.3873 74.5147 13.2759 74.52ZM22.2549 88.11C22.0255 88.1126 21.8062 88.2051 21.644 88.3677C21.4818 88.5303 21.3895 88.75 21.3869 88.98C21.3905 89.1805 21.4607 89.374 21.5865 89.53L21.7062 89.65C21.8651 89.77 22.0562 89.8396 22.2549 89.85C22.4851 89.85 22.7059 89.7583 22.8687 89.5952C23.0314 89.432 23.1229 89.2107 23.1229 88.98C23.1229 88.7492 23.0314 88.5279 22.8687 88.3648C22.7059 88.2016 22.4851 88.11 22.2549 88.11V88.11ZM24.6593 91.36C24.5261 91.3558 24.3942 91.3869 24.2769 91.4501C24.1596 91.5133 24.0609 91.6064 23.9908 91.72C24.4298 92.08 24.8588 92.43 25.3377 92.79C25.4574 92.6307 25.5269 92.4392 25.5372 92.24C25.536 92.1214 25.5111 92.0042 25.464 91.8954C25.4169 91.7866 25.3486 91.6883 25.2631 91.6063C25.1776 91.5243 25.0766 91.4603 24.9661 91.418C24.8555 91.3757 24.7376 91.356 24.6194 91.36H24.6593ZM71.6594 88.1C71.4292 88.1 71.2084 88.1916 71.0457 88.3548C70.8829 88.5179 70.7914 88.7392 70.7914 88.97C70.7914 89.2007 70.8829 89.422 71.0457 89.5852C71.2084 89.7483 71.4292 89.84 71.6594 89.84C71.7515 89.8594 71.8466 89.8594 71.9388 89.84L72.4875 89.29C72.5065 89.2111 72.5065 89.1288 72.4875 89.05C72.4943 88.9321 72.4769 88.814 72.4362 88.7031C72.3956 88.5923 72.3325 88.491 72.2511 88.4056C72.1697 88.3202 72.0716 88.2526 71.9629 88.2069C71.8542 88.1612 71.7373 88.1384 71.6195 88.14L71.6594 88.1ZM42.6472 98.26C42.4178 98.2626 42.1986 98.3551 42.0363 98.5177C41.8741 98.6803 41.7819 98.9 41.7793 99.13C41.7874 99.2667 41.8235 99.4002 41.8853 99.5223C41.9471 99.6445 42.0332 99.7526 42.1384 99.84C42.3988 99.8859 42.6623 99.9127 42.9266 99.92C43.0862 99.8582 43.2238 99.7499 43.3215 99.6091C43.4193 99.4684 43.4729 99.3015 43.4753 99.13C43.487 99.0163 43.474 98.9013 43.4371 98.7932C43.4002 98.685 43.3403 98.5861 43.2616 98.5034C43.1829 98.4207 43.0871 98.3561 42.9811 98.3141C42.875 98.272 42.7611 98.2536 42.6472 98.26ZM68.5866 92.26C68.5837 92.4026 68.6255 92.5425 68.7063 92.66L70.0133 91.59C69.8543 91.47 69.6633 91.4003 69.4645 91.39C69.2342 91.3925 69.0139 91.4847 68.85 91.647C68.6862 91.8093 68.5918 92.0291 68.5866 92.26V92.26ZM31.1441 94.81C30.9147 94.8126 30.6955 94.9051 30.5332 95.0677C30.371 95.2303 30.2787 95.45 30.2762 95.68C30.2732 95.8226 30.3151 95.9625 30.3959 96.08C30.6752 96.24 30.9845 96.36 31.2638 96.52C31.4702 96.5023 31.6622 96.4068 31.8011 96.2527C31.94 96.0987 32.0154 95.8976 32.0121 95.69C32.0121 95.4583 31.921 95.236 31.7585 95.0712C31.596 94.9065 31.3752 94.8126 31.1441 94.81V94.81ZM62.5707 94.81C62.3413 94.8126 62.122 94.9051 61.9598 95.0677C61.7976 95.2303 61.7053 95.45 61.7027 95.68C61.7062 95.8962 61.7881 96.1038 61.9331 96.2639C62.0782 96.424 62.2764 96.5257 62.4908 96.55C62.7702 96.43 63.0396 96.27 63.279 96.15C63.3601 96.0178 63.4017 95.8651 63.3987 95.71C63.4084 95.5952 63.3942 95.4797 63.3569 95.3708C63.3197 95.2619 63.2602 95.1619 63.1823 95.0773C63.1045 94.9926 63.0099 94.9252 62.9045 94.8791C62.7992 94.8331 62.6855 94.8096 62.5707 94.81ZM38.1777 98.26C37.995 98.2571 37.8161 98.3128 37.6672 98.4189C37.5182 98.525 37.407 98.6761 37.3496 98.85C37.8983 99.01 38.457 99.13 39.0057 99.25V99.1C39.0146 98.9883 38.9993 98.876 38.961 98.7707C38.9226 98.6654 38.8621 98.5697 38.7836 98.49C38.705 98.4103 38.6102 98.3485 38.5056 98.3088C38.4011 98.2691 38.2892 98.2524 38.1777 98.26ZM51.5764 98.26C51.347 98.2626 51.1277 98.3551 50.9655 98.5177C50.8033 98.6803 50.711 98.9 50.7084 99.13C50.7089 99.2877 50.7542 99.442 50.839 99.5748C50.9238 99.7076 51.0446 99.8135 51.1873 99.88L52.1849 99.76C52.3543 99.593 52.4541 99.3679 52.4643 99.13C52.4671 99.0141 52.4462 98.8989 52.4029 98.7914C52.3597 98.6839 52.2949 98.5865 52.2127 98.505C52.1305 98.4235 52.0325 98.3597 51.9248 98.3176C51.8171 98.2755 51.7019 98.2559 51.5863 98.26H51.5764ZM56.0459 98.26C55.8165 98.2626 55.5972 98.3551 55.435 98.5177C55.2728 98.6803 55.1805 98.9 55.1779 99.13C55.7267 99.01 56.2454 98.85 56.7942 98.69C56.7284 98.5473 56.6226 98.4269 56.4897 98.3435C56.3569 98.26 56.2027 98.2171 56.0459 98.22V98.26Z" fill="#FF7B67"/>
<path d="M28.141 73.22C27.9776 73.2202 27.8166 73.1802 27.6722 73.1035C27.5278 73.0268 27.4045 72.9157 27.313 72.78C24.4423 68.4113 22.8396 63.3288 22.6838 58.0999C22.4022 52.7973 23.568 47.5181 26.0559 42.8299C29.2658 36.8149 34.4398 32.0878 40.7116 29.44C40.8333 29.3749 40.9672 29.3359 41.1047 29.3253C41.2422 29.3147 41.3804 29.3329 41.5106 29.3786C41.6408 29.4242 41.7601 29.4965 41.861 29.5907C41.9619 29.6849 42.0423 29.7991 42.0969 29.926C42.1516 30.053 42.1794 30.1899 42.1786 30.3281C42.1778 30.4664 42.1485 30.6029 42.0923 30.7292C42.0362 30.8555 41.9546 30.9688 41.8526 31.0618C41.7506 31.1549 41.6305 31.2258 41.4998 31.27C35.6636 33.7442 30.8501 38.1491 27.8617 43.75C25.538 48.1283 24.4449 53.0572 24.6991 58.0099C24.8512 62.8836 26.3577 67.618 29.0489 71.68C29.125 71.793 29.1772 71.9204 29.2023 72.0543C29.2274 72.1883 29.225 72.326 29.1951 72.459C29.1652 72.592 29.1085 72.7175 29.0284 72.8277C28.9484 72.9379 28.8467 73.0306 28.7296 73.1C28.5446 73.1829 28.3437 73.2239 28.141 73.22V73.22ZM80.5186 76.47C80.295 76.4605 80.0781 76.3915 79.8901 76.2699C79.6874 76.1052 79.5572 75.8674 79.5273 75.6076C79.4975 75.3478 79.5704 75.0865 79.7304 74.8799C83.6246 69.9717 85.7357 63.881 85.7164 57.6099C85.7537 51.9442 84.0856 46.3989 80.93 41.6981C77.7744 36.9974 73.2779 33.3596 68.0278 31.26C67.8815 31.2348 67.7426 31.1773 67.6213 31.0916C67.5 31.0059 67.3993 30.8941 67.3265 30.7644C67.2538 30.6348 67.2108 30.4904 67.2008 30.342C67.1907 30.1936 67.2138 30.0448 67.2684 29.9064C67.323 29.7681 67.4077 29.6437 67.5164 29.5423C67.625 29.441 67.7549 29.3652 67.8964 29.3205C68.038 29.2758 68.1878 29.2633 68.3347 29.284C68.4817 29.3047 68.6223 29.3579 68.7461 29.44C74.3662 31.6909 79.18 35.5856 82.5609 40.6171C85.9418 45.6486 87.7332 51.5837 87.7018 57.6499C87.7354 64.3753 85.4598 70.9074 81.2569 76.15C81.1616 76.253 81.0457 76.3347 80.9168 76.3899C80.7878 76.445 80.6488 76.4723 80.5086 76.47H80.5186Z" fill="#1BE6E1"/>
<path d="M41.42 29.6C41.3111 29.3615 41.1131 29.1755 40.8686 29.0819C40.6242 28.9884 40.3528 28.9949 40.1131 29.1C36.1922 30.7424 32.6652 33.203 29.7668 36.3178C26.8683 39.4327 24.6648 43.1305 23.3029 47.1653C21.9409 51.2001 21.4518 55.4793 21.868 59.7183C22.2842 63.9572 23.5962 68.0588 25.7168 71.75L22.7936 71C22.5638 70.9893 22.3374 71.0585 22.1528 71.1959C21.9681 71.3333 21.8364 71.5305 21.7801 71.754C21.7237 71.9775 21.7462 72.2137 21.8436 72.4225C21.941 72.6313 22.1075 72.8 22.3147 72.9L27.5724 74.21C27.6511 74.2291 27.7332 74.2291 27.8119 74.21C28.0299 74.206 28.2406 74.1305 28.4118 73.995C28.583 73.8596 28.7052 73.6717 28.7596 73.46L30.1863 68.15C30.2204 68.0226 30.2291 67.8898 30.2119 67.759C30.1947 67.6283 30.1521 67.5022 30.0863 67.388C30.0205 67.2737 29.9329 67.1736 29.8286 67.0933C29.7242 67.013 29.605 66.9541 29.478 66.92C29.3509 66.8859 29.2183 66.8771 29.0879 66.8943C28.9574 66.9115 28.8316 66.9543 28.7177 67.0203C28.6037 67.0862 28.5039 67.174 28.4238 67.2786C28.3437 67.3832 28.2849 67.5026 28.2508 67.63L27.4228 70.68C25.2071 66.8438 23.9477 62.5283 23.7513 58.1C23.5023 53.0488 24.6227 48.0242 26.9938 43.56C30.0827 37.8793 35.0085 33.4215 40.9611 30.92C41.1945 30.8037 41.3731 30.6004 41.4589 30.3537C41.5447 30.107 41.5307 29.8365 41.42 29.6V29.6ZM70.6717 29.95L73.5549 28.4C73.7864 28.2674 73.9559 28.048 74.0261 27.7902C74.0963 27.5323 74.0614 27.2571 73.9291 27.025C73.7968 26.7929 73.5779 26.6231 73.3206 26.5527C73.0634 26.4824 72.7888 26.5174 72.5573 26.65L67.7385 29.23C67.5112 29.3498 67.3387 29.5528 67.257 29.7968C67.1752 30.0408 67.1904 30.307 67.2995 30.54L69.8336 35.49C69.915 35.6519 70.0387 35.7886 70.1916 35.8855C70.3445 35.9824 70.5208 36.0358 70.7016 36.04C70.8564 36.043 71.0087 36.0013 71.1406 35.92C71.2582 35.8607 71.3629 35.7786 71.4488 35.6784C71.5346 35.5783 71.5998 35.4621 71.6406 35.3366C71.6814 35.2111 71.697 35.0788 71.6865 34.9472C71.6761 34.8156 71.6397 34.6874 71.5795 34.57L70.2327 31.96C75.0746 34.2755 79.1675 37.9119 82.042 42.4521C84.9165 46.9924 86.4563 52.2528 86.4847 57.63C86.4966 64.0329 84.3365 70.2497 80.359 75.26C80.199 75.4666 80.1261 75.7278 80.1559 75.9876C80.1858 76.2475 80.316 76.4853 80.5186 76.65C80.6967 76.7916 80.9203 76.8627 81.1472 76.85C81.2971 76.8532 81.4458 76.8225 81.5823 76.7602C81.7187 76.6979 81.8394 76.6055 81.9353 76.49C86.1959 71.1325 88.511 64.4813 88.5 57.63C88.4831 51.7897 86.7942 46.0771 83.6339 41.1705C80.4736 36.2639 75.9748 32.3695 70.6717 29.95V29.95ZM61.8623 20.29C61.6474 20.2864 61.4348 20.2458 61.2337 20.17C60.9127 20.0065 60.6496 19.748 60.4801 19.4296C60.3106 19.1112 60.2428 18.7483 60.2859 18.39V16.77C60.2757 16.5887 60.1966 16.4182 60.0649 16.2936C59.9331 16.169 59.7587 16.0997 59.5776 16.1H56.2853C55.5735 16.1 54.8909 15.8166 54.3876 15.3121C53.8843 14.8076 53.6016 14.1234 53.6016 13.41V2.69C53.6016 1.97657 53.8843 1.29236 54.3876 0.787883C54.8909 0.28341 55.5735 0 56.2853 0H80.5985C81.3102 0 81.9928 0.28341 82.4961 0.787883C82.9994 1.29236 83.2822 1.97657 83.2822 2.69V13.69C83.2822 14.4034 82.9994 15.0876 82.4961 15.5921C81.9928 16.0966 81.3102 16.38 80.5985 16.38H68.4568C67.6085 16.4255 66.7942 16.729 66.1223 17.25L63.1991 19.75C62.8239 20.0694 62.354 20.2557 61.8623 20.28V20.29ZM56.2454 2.02C56.0575 2.02 55.8774 2.0948 55.7445 2.22795C55.6117 2.3611 55.537 2.5417 55.537 2.73V13.39C55.537 13.5783 55.6117 13.7589 55.7445 13.892C55.8774 14.0252 56.0575 14.1 56.2454 14.1H59.5277C60.2395 14.1 60.9221 14.3834 61.4254 14.8879C61.9287 15.3924 62.2114 16.0766 62.2114 16.79V17.98L64.8154 15.76C65.8502 14.952 67.1071 14.4809 68.4169 14.41H80.5486C80.7364 14.41 80.9166 14.3352 81.0495 14.202C81.1823 14.0689 81.2569 13.8883 81.2569 13.7V2.7C81.2569 2.5117 81.1823 2.33111 81.0495 2.19795C80.9166 2.0648 80.7364 1.99 80.5486 1.99H56.2454V2.02Z" fill="#1A0B4C"/>
<path d="M62.0917 9.85995C62.9623 9.85995 63.668 9.15256 63.668 8.27995C63.668 7.40734 62.9623 6.69995 62.0917 6.69995C61.2211 6.69995 60.5154 7.40734 60.5154 8.27995C60.5154 9.15256 61.2211 9.85995 62.0917 9.85995Z" fill="#1BE6E1"/>
<path d="M68.5766 6.69995C68.2648 6.69995 67.96 6.79262 67.7008 6.96623C67.4416 7.13984 67.2395 7.3866 67.1202 7.67531C67.0009 7.96402 66.9697 8.2817 67.0305 8.58819C67.0914 8.89468 67.2415 9.17621 67.4619 9.39718C67.6824 9.61815 67.9633 9.76863 68.269 9.82959C68.5748 9.89056 68.8918 9.85927 69.1798 9.73968C69.4678 9.62009 69.714 9.41758 69.8872 9.15775C70.0604 8.89792 70.1529 8.59245 70.1529 8.27995C70.1529 7.86091 69.9868 7.45903 69.6912 7.16272C69.3956 6.86642 68.9946 6.69995 68.5766 6.69995Z" fill="#1BE6E1"/>
<path d="M75.0614 9.85995C75.932 9.85995 76.6377 9.15256 76.6377 8.27995C76.6377 7.40734 75.932 6.69995 75.0614 6.69995C74.1908 6.69995 73.4851 7.40734 73.4851 8.27995C73.4851 9.15256 74.1908 9.85995 75.0614 9.85995Z" fill="#1BE6E1"/>
<path d="M79.0521 81.97C79.0397 80.7464 78.7569 79.5409 78.224 78.44C77.7236 77.4275 77.0085 76.5367 76.1289 75.83C75.1976 75.1125 74.1047 74.6351 72.9463 74.44C73.6081 73.8807 74.1389 73.1821 74.501 72.3941C74.8631 71.606 75.0476 70.7476 75.0414 69.88C75.0362 68.2744 74.3975 66.7361 73.2648 65.6007C72.1322 64.4654 70.5974 63.8253 68.9956 63.82C68.2246 63.7795 67.4534 63.8957 66.7284 64.1616C66.0033 64.4274 65.3394 64.8375 64.7765 65.3672C64.2136 65.8968 63.7634 66.5351 63.4529 67.2436C63.1424 67.9521 62.978 68.7162 62.9697 69.49C62.9877 70.42 63.1973 71.3361 63.5853 72.1811C63.9733 73.026 64.5313 73.7814 65.2244 74.4C65.2244 74.4 65.1047 74.4 65.0648 74.4C63.4291 74.8575 61.9689 75.7984 60.8746 77.1V77.18C60.7395 77.3668 60.6194 77.5641 60.5154 77.77C59.7425 77.2768 58.8822 76.9373 57.9813 76.77C58.6431 76.2107 59.1739 75.5121 59.5359 74.724C59.898 73.936 60.0826 73.0776 60.0764 72.21C60.0502 70.6114 59.3968 69.0875 58.2578 67.9682C57.1188 66.849 55.5857 66.2245 53.9907 66.23C53.218 66.1867 52.4447 66.3008 51.7173 66.5654C50.9899 66.8301 50.3236 67.2397 49.7585 67.7696C49.1935 68.2995 48.7415 68.9387 48.4297 69.6486C48.118 70.3585 47.953 71.1244 47.9448 71.9C47.9628 72.83 48.1724 73.7461 48.5604 74.5911C48.9484 75.436 49.5065 76.1914 50.1995 76.81C50.1995 76.81 50.0798 76.81 50.0399 76.81C49.6615 76.8994 49.2912 77.0198 48.9325 77.17C48.4308 76.2409 47.753 75.4189 46.9371 74.75C46.0046 74.0393 44.9232 73.5504 43.7745 73.32C44.4363 72.7607 44.9671 72.0621 45.3292 71.2741C45.6912 70.486 45.8758 69.6276 45.8696 68.76C45.8644 67.1544 45.2257 65.6161 44.093 64.4807C42.9604 63.3454 41.4256 62.7053 39.8238 62.7C39.0512 62.6567 38.2778 62.7708 37.5504 63.0354C36.823 63.3001 36.1567 63.7097 35.5917 64.2396C35.0266 64.7695 34.5746 65.4087 34.2628 66.1186C33.9511 66.8285 33.7861 67.5944 33.7779 68.37C33.7905 69.3067 33.9974 70.2306 34.3856 71.0828C34.7738 71.935 35.3347 72.6969 36.0326 73.32C36.0326 73.32 35.9129 73.32 35.873 73.32C34.2346 73.803 32.7806 74.7722 31.7028 76.1V76.18C30.6566 77.7367 30.0815 79.5633 30.0466 81.44C29.9196 82.3508 30.0727 83.2787 30.4856 84.1C31.4833 85.76 33.4786 85.72 37.0902 85.68H39.6941C41.001 85.68 42.1084 85.68 43.0961 85.68C43.4649 85.6585 43.8347 85.6585 44.2035 85.68C44.1769 86.3211 44.3438 86.9554 44.6824 87.5C45.6801 89.16 47.6754 89.12 51.287 89.08C52.0352 89.08 52.9032 89.08 53.8909 89.08C55.1978 89.08 56.3052 89.08 57.2929 89.08C58.0412 89.08 58.7196 89.08 59.3481 89.08C61.6827 89.08 62.9896 88.84 63.7379 87.57C63.8984 87.2845 64.0192 86.9783 64.097 86.66H66.3518C67.1 86.66 67.968 86.66 68.9257 86.66C70.2327 86.66 71.3401 86.66 72.3278 86.66C73.076 86.66 73.7545 86.66 74.383 86.66C76.7175 86.66 78.0245 86.42 78.7727 85.15C79.0734 84.0401 79.1681 82.8842 79.0521 81.74V81.97ZM69.0155 65.77C70.0951 65.77 71.1304 66.1998 71.8938 66.965C72.6572 67.7301 73.086 68.7679 73.086 69.85C73.086 70.9321 72.6572 71.9698 71.8938 72.735C71.1304 73.5001 70.0951 73.93 69.0155 73.93C67.9015 73.8508 66.8603 73.346 66.1066 72.5199C65.3529 71.6938 64.9443 70.6092 64.965 69.49C64.965 67.31 66.661 65.77 69.0355 65.77H69.0155ZM53.9907 68.15C55.0702 68.15 56.1056 68.5798 56.8689 69.345C57.6323 70.1101 58.0611 71.1479 58.0611 72.23C58.0611 73.3121 57.6323 74.3498 56.8689 75.115C56.1056 75.8801 55.0702 76.31 53.9907 76.31C52.8731 76.2357 51.8269 75.7331 51.069 74.9064C50.3112 74.0798 49.8998 72.9925 49.9202 71.87C49.9238 71.3515 50.0344 70.8393 50.245 70.3657C50.4556 69.8921 50.7616 69.4672 51.1439 69.1179C51.5262 68.7685 51.9764 68.5022 52.4663 68.3356C52.9562 68.169 53.4752 68.1058 53.9907 68.15V68.15ZM39.7639 64.66C40.8435 64.66 41.8788 65.0898 42.6422 65.855C43.4055 66.6201 43.8344 67.6579 43.8344 68.74C43.8344 69.8221 43.4055 70.8598 42.6422 71.625C41.8788 72.3901 40.8435 72.82 39.7639 72.82C38.6463 72.7457 37.6001 72.2431 36.8423 71.4164C36.0844 70.5898 35.673 69.5025 35.6934 68.38C35.697 67.8615 35.8076 67.3493 36.0182 66.8757C36.2288 66.4021 36.5349 65.9772 36.9172 65.6279C37.2994 65.2785 37.7497 65.0122 38.2396 64.8456C38.7295 64.679 39.2485 64.6158 39.7639 64.66V64.66ZM39.5245 83.6H36.9206C33.8378 83.6 32.451 83.6 32.0619 82.97C31.8624 82.65 31.8624 82.34 31.8624 81.39C31.8892 79.8936 32.3427 78.4363 33.1693 77.19C33.961 76.2562 34.9979 75.5634 36.1623 75.19C36.4906 75.1128 36.824 75.0593 37.16 75.03C37.3325 75.047 37.5063 75.047 37.6788 75.03C41.0808 74.91 43.7646 74.83 45.5803 76.26C46.2408 76.7455 46.7831 77.3745 47.1666 78.1C46.6824 78.5127 46.2196 78.95 45.7798 79.41V79.49C44.9656 80.7487 44.4282 82.1668 44.2035 83.65C43.8444 83.65 43.4553 83.65 43.0163 83.65H39.5245V83.6ZM61.8623 86.6C61.5031 87.19 60.1662 87.19 57.1932 87.12C56.1955 87.12 55.0582 87.12 53.7113 87.12H51.1074C48.0246 87.12 46.6378 87.12 46.2488 86.49C46.0492 86.21 46.0492 85.86 46.0492 84.87V84.75C46.1289 83.3251 46.5795 81.946 47.3562 80.75C47.8078 80.2314 48.3281 79.7772 48.9025 79.4C49.3531 79.1098 49.8487 78.8968 50.3691 78.77C50.6974 78.6928 51.0308 78.6393 51.3668 78.61C51.5393 78.627 51.7131 78.627 51.8856 78.61C55.2876 78.49 57.9713 78.41 59.7871 79.84C59.7871 79.84 59.9467 79.96 60.0665 80.08C60.5862 80.5667 61.0153 81.1424 61.3335 81.78C61.7195 82.6016 61.9366 83.4926 61.972 84.4C61.972 84.88 61.972 85.31 61.972 85.63C62.0072 85.9608 61.9697 86.2953 61.8623 86.61V86.6ZM76.8273 84.26C76.4681 84.85 75.1312 84.85 72.1582 84.78C71.1605 84.78 70.0232 84.78 68.6763 84.78H63.9673V84.38C63.9549 83.1564 63.6721 81.9509 63.1393 80.85C62.8314 80.2162 62.4387 79.6274 61.972 79.1C62.1316 78.78 62.2912 78.55 62.411 78.35C63.2002 77.4265 64.24 76.7526 65.404 76.41C65.7323 76.3328 66.0657 76.2793 66.4016 76.25C66.5742 76.267 66.7479 76.267 66.9204 76.25C70.3225 76.13 73.0062 76.05 74.822 77.48C75.4762 78.002 76.0048 78.6651 76.3683 79.42C76.7864 80.2548 77.0275 81.1672 77.0767 82.1C77.1985 82.8318 77.1297 83.5826 76.8772 84.28L76.8273 84.26Z" fill="#A9AEFF"/>
<path d="M68.1476 46.4299C68.1186 44.7383 67.713 43.0744 66.9604 41.5599C66.2805 40.167 65.2948 38.9465 64.0771 37.9899C62.6193 36.8837 60.9009 36.1741 59.0888 35.9299C60.4603 34.9029 61.4743 33.469 61.987 31.8317C62.4997 30.1945 62.4851 28.437 61.9452 26.8085C61.4053 25.18 60.3676 23.7633 58.9792 22.7593C57.5908 21.7553 55.9222 21.215 54.2102 21.215C52.4982 21.215 50.8296 21.7553 49.4412 22.7593C48.0528 23.7633 47.0151 25.18 46.4752 26.8085C45.9353 28.437 45.9206 30.1945 46.4333 31.8317C46.9461 33.469 47.9601 34.9029 49.3316 35.9299L48.6232 36.0499C46.4359 36.6801 44.4845 37.9469 43.0163 39.6899C43.0163 39.6899 43.0163 39.6899 43.0163 39.7699C41.5418 41.9374 40.7083 44.4783 40.612 47.0999C40.4608 48.3132 40.6799 49.544 41.2405 50.6299C42.5874 52.8099 45.1514 52.7699 50.2195 52.6899C51.3269 52.6899 52.554 52.6899 53.9308 52.6899C55.7865 52.6899 57.4127 52.6899 58.7895 52.7699C59.857 52.7699 60.7848 52.7699 61.6727 52.7699C64.8353 52.7699 66.6611 52.4499 67.559 50.8299C68.2673 49.6399 68.1875 48.1399 68.1177 46.3899L68.1476 46.4299ZM48.1942 29.4299C48.1942 28.2077 48.5558 27.0128 49.2333 25.9965C49.9108 24.9802 50.8737 24.1881 52.0004 23.7204C53.127 23.2526 54.3667 23.1302 55.5627 23.3687C56.7587 23.6072 57.8573 24.1957 58.7196 25.06C59.5818 25.9243 60.169 27.0255 60.4069 28.2243C60.6448 29.4231 60.5227 30.6657 60.0561 31.7949C59.5894 32.9242 58.7992 33.8894 57.7852 34.5684C56.7713 35.2475 55.5793 35.6099 54.3598 35.6099C53.5434 35.6166 52.7339 35.4606 51.9781 35.1511C51.2223 34.8417 50.5354 34.3848 49.9572 33.8071C49.3789 33.2294 48.9209 32.5423 48.6098 31.7858C48.2986 31.0292 48.1404 30.2183 48.1444 29.3999L48.1942 29.4299ZM65.8929 49.8799C65.3042 50.8799 63.3987 50.8799 58.8593 50.7899C57.4326 50.7899 55.8164 50.7099 53.9608 50.7099H53.4819C52.2947 50.7099 51.1872 50.7099 50.1996 50.7099C45.5305 50.7099 43.595 50.7099 42.8866 49.5999C42.5508 48.8266 42.4401 47.9737 42.5674 47.1399C42.632 44.9067 43.3236 42.737 44.5627 40.8799C45.7645 39.4489 47.361 38.4053 49.152 37.8799C49.6628 37.7722 50.179 37.6921 50.6984 37.6399C50.858 37.6399 51.1374 37.6399 51.4466 37.6399C56.435 37.4799 60.266 37.3199 62.9897 39.4599C63.9624 40.2476 64.758 41.2324 65.3242 42.3499C65.9526 43.6197 66.2932 45.0129 66.3219 46.4299C66.4396 47.5826 66.3173 48.7472 65.9627 49.8499L65.8929 49.8799Z" fill="#1BE6E1"/>
</g>
<defs>
<clipPath id="clip0">
<rect width="77" height="100" fill="white" transform="translate(11.5)"/>
</clipPath>
</defs>
</svg>
