<svg width="100" height="100" viewBox="0 0 100 100" fill="none" xmlns="http://www.w3.org/2000/svg">
<g clip-path="url(#clip0)">
<path d="M73.5972 25.1299L67.9972 14.0799L67.4662 13.3999L66.8251 12.6499L73.0462 24.9399L73.5972 25.1299Z" fill="#FF7B67"/>
<path d="M55.7553 24.5399L43.4533 0.229932L42.9824 0.179932L55.3245 24.5699L55.7553 24.5399Z" fill="#FF7B67"/>
<path d="M56.3765 60.53H55.9257L61.1049 70.75H61.5457L56.3765 60.53Z" fill="#FF7B67"/>
<path d="M38.6747 25.55L25.7416 0H25.2908L38.3842 25.86L38.6747 25.55Z" fill="#FF7B67"/>
<path d="M83.9056 100C81.2235 99.9961 78.6026 99.199 76.3738 97.7095C74.145 96.2199 72.4083 94.1047 71.3828 91.6307C70.3573 89.1568 70.089 86.435 70.6118 83.809C71.1346 81.1829 72.425 78.7704 74.3202 76.8758C76.2154 74.9812 78.6304 73.6895 81.2603 73.1638C83.8903 72.6381 86.6174 72.9019 89.0973 73.9219C91.5772 74.9419 93.6987 76.6725 95.1942 78.8951C96.6897 81.1176 97.492 83.7327 97.5 86.41V86.41C97.508 90.0029 96.0872 93.4521 93.5496 96.0001C91.012 98.5482 87.5651 99.9868 83.9657 100H83.9056ZM83.9056 74.9C80.8342 74.9 77.8886 76.1179 75.7168 78.2859C73.545 80.4538 72.3249 83.3941 72.3249 86.46C72.3249 89.5259 73.545 92.4662 75.7168 94.6342C77.8886 96.8021 80.8342 98.02 83.9056 98.02V98.02C86.9762 98.0068 89.9161 96.7778 92.0798 94.603C94.2435 92.4281 95.4543 89.4851 95.4463 86.42V86.42C95.4357 83.368 94.2165 80.4439 92.0544 78.2858C89.8924 76.1277 86.9632 74.9106 83.9056 74.9V74.9Z" fill="#1BE6E1"/>
<path d="M17.7072 45.05C19.1457 45.05 20.3119 43.8859 20.3119 42.45C20.3119 41.014 19.1457 39.85 17.7072 39.85C16.2687 39.85 15.1025 41.014 15.1025 42.45C15.1025 43.8859 16.2687 45.05 17.7072 45.05Z" fill="#1A0B4C"/>
<path d="M30.43 45.05C31.8685 45.05 33.0346 43.8859 33.0346 42.45C33.0346 41.014 31.8685 39.85 30.43 39.85C28.9915 39.85 27.8253 41.014 27.8253 42.45C27.8253 43.8859 28.9915 45.05 30.43 45.05Z" fill="#1A0B4C"/>
<path d="M47.5506 45.05C48.9891 45.05 50.1552 43.8859 50.1552 42.45C50.1552 41.014 48.9891 39.85 47.5506 39.85C46.1121 39.85 44.9459 41.014 44.9459 42.45C44.9459 43.8859 46.1121 45.05 47.5506 45.05Z" fill="#1BE6E1"/>
<path d="M77.5242 70.1601C76.8405 70.1268 76.1923 69.8459 75.701 69.3701L67.2358 62.0901C65.974 61.1294 64.4525 60.5686 62.868 60.4801L41.2393 60.5401C40.2181 60.5401 39.2386 60.1358 38.5156 59.416C37.7926 58.6961 37.3851 57.7194 37.3824 56.7001L37.2922 28.4601C37.2896 27.438 37.6931 26.4567 38.4142 25.7312C39.1354 25.0057 40.1153 24.5953 41.1391 24.5901L91.0184 24.4301C91.5249 24.4314 92.0262 24.5322 92.4936 24.7269C92.961 24.9216 93.3855 25.2063 93.7427 25.5648C94.0999 25.9232 94.3829 26.3484 94.5755 26.816C94.7681 27.2836 94.8666 27.7845 94.8653 28.2901V28.2901L94.9254 55.7201C94.928 56.7421 94.5246 57.7234 93.8034 58.4489C93.0823 59.1744 92.1023 59.5848 91.0785 59.5901H81.321C80.8286 59.5927 80.3572 59.7898 80.0099 60.1384C79.6626 60.4869 79.4677 60.9585 79.4677 61.4501V67.5801C79.5344 68.0529 79.4538 68.5349 79.237 68.9606C79.0202 69.3862 78.6776 69.7352 78.2555 69.9601C78.0287 70.0777 77.7794 70.1459 77.5242 70.1601ZM62.868 58.4701C64.9313 58.5624 66.9139 59.2967 68.5382 60.5701L77.0033 67.8501C77.1344 67.9687 77.2831 68.0666 77.4441 68.1401C77.4958 67.9717 77.5195 67.7961 77.5142 67.6201V61.4901C77.5142 60.4688 77.9185 59.489 78.6391 58.7641C79.3597 58.0392 80.3381 57.628 81.3611 57.6201H91.1186C91.6075 57.6044 92.0706 57.3974 92.408 57.0438C92.7454 56.6902 92.9299 56.2183 92.9218 55.7301L92.8617 28.2901C92.859 27.7985 92.6615 27.328 92.3124 26.9813C91.9632 26.6346 91.4908 26.44 90.9983 26.4401V26.4401L41.1191 26.6001C40.6266 26.6027 40.1553 26.7998 39.808 27.1484C39.4607 27.4969 39.2658 27.9685 39.2658 28.4601L39.3559 56.7001C39.3586 57.1916 39.5561 57.6622 39.9052 58.0088C40.2544 58.3555 40.7268 58.5501 41.2193 58.5501L62.868 58.4701Z" fill="#1A0B4C"/>
<path d="M81.9722 45.05C83.4107 45.05 84.5769 43.8859 84.5769 42.45C84.5769 41.014 83.4107 39.85 81.9722 39.85C80.5337 39.85 79.3676 41.014 79.3676 42.45C79.3676 43.8859 80.5337 45.05 81.9722 45.05Z" fill="#1A0B4C"/>
<path d="M67.316 45.05C68.7545 45.05 69.9206 43.8859 69.9206 42.45C69.9206 41.014 68.7545 39.85 67.316 39.85C65.8774 39.85 64.7113 41.014 64.7113 42.45C64.7113 43.8859 65.8774 45.05 67.316 45.05Z" fill="#1A0B4C"/>
<path d="M12.5079 83.88C9.851 83.88 7.3029 82.8264 5.42417 80.9511C3.54545 79.0757 2.48999 76.5322 2.48999 73.88C2.48999 71.2278 3.54545 68.6843 5.42417 66.8089C7.3029 64.9336 9.851 63.88 12.5079 63.88V63.88C15.1648 63.88 17.7129 64.9336 19.5917 66.8089C21.4704 68.6843 22.5258 71.2278 22.5258 73.88C22.5258 76.5322 21.4704 79.0757 19.5917 80.9511C17.7129 82.8264 15.1648 83.88 12.5079 83.88ZM12.5079 65.88C10.3824 65.88 8.3439 66.7229 6.84092 68.2231C5.33794 69.7234 4.49358 71.7583 4.49358 73.88C4.49358 76.0017 5.33794 78.0366 6.84092 79.5369C8.3439 81.0372 10.3824 81.88 12.5079 81.88V81.88C14.6335 81.88 16.6719 81.0372 18.1749 79.5369C19.6779 78.0366 20.5223 76.0017 20.5223 73.88C20.5223 71.7583 19.6779 69.7234 18.1749 68.2231C16.6719 66.7229 14.6335 65.88 12.5079 65.88V65.88Z" fill="#1BE6E1"/>
<path d="M12.598 79.83C11.8363 79.834 11.0813 79.6881 10.376 79.4008C9.67075 79.1135 9.02911 78.6903 8.4877 78.1554C7.94629 77.6206 7.51572 76.9845 7.22059 76.2835C6.92545 75.5825 6.77151 74.8304 6.76758 74.07H8.77116C8.77646 75.0717 9.17881 76.0306 9.89028 76.7371C10.6017 77.4435 11.5644 77.8401 12.568 77.84V77.84C13.0661 77.8407 13.5593 77.742 14.0187 77.5497C14.478 77.3573 14.8942 77.0753 15.2427 76.72C15.9511 76.0076 16.3474 75.0438 16.3447 74.04H18.3483C18.351 75.5722 17.7452 77.0429 16.6636 78.1301C15.582 79.2172 14.1129 79.8321 12.578 79.84C12.578 79.84 12.608 79.83 12.598 79.83Z" fill="#1BE6E1"/>
<path d="M83.9557 95.77C81.6077 95.7674 79.3561 94.8372 77.693 93.1827C76.0299 91.5282 75.0904 89.2838 75.0798 86.94H77.0834C77.0914 88.7569 77.82 90.4966 79.1098 91.7785C80.3996 93.0604 82.1456 93.78 83.9657 93.78C85.7893 93.7721 87.5352 93.042 88.8199 91.7502C90.1047 90.4583 90.8233 88.7103 90.818 86.89H92.8216C92.8269 89.239 91.8986 91.4942 90.2402 93.1609C88.5819 94.8275 86.329 95.7694 83.9758 95.78C83.9758 95.78 83.9657 95.77 83.9557 95.77Z" fill="#1BE6E1"/>
<path d="M59.522 6.12995L58.8508 5.69995L68.3679 24.5H68.8387L59.522 6.12995Z" fill="#FF7B67"/>
<path d="M64.4609 24.5099L53.5313 2.90994L52.9703 2.68994L63.98 24.5099H64.4609Z" fill="#FF7B67"/>
<path d="M60.1131 24.53L48.2519 1.10999L47.751 0.98999L59.6623 24.53H60.1131Z" fill="#FF7B67"/>
<path d="M7.92966 50.9301L4.51355 44.1801L4.88421 45.8101L7.91964 51.7901L7.92966 50.9301Z" fill="#FF7B67"/>
<path d="M7.88964 42.24L3.55188 33.67V34.56L7.88964 43.12V42.24Z" fill="#FF7B67"/>
<path d="M14.2911 54.89H13.8403L19.22 65.51L19.8711 65.92L14.2911 54.89Z" fill="#FF7B67"/>
<path d="M7.85959 33.5601L3.55188 25.05V25.9401L7.85959 34.4501V33.5601Z" fill="#FF7B67"/>
<path d="M21.9949 61.49L21.6643 61.74L25.0604 68.44L25.6014 68.63L21.9949 61.49Z" fill="#FF7B67"/>
<path d="M10.4542 30.0899L3.55188 16.4399V17.3299L10.0435 30.1599L10.4542 30.0899Z" fill="#FF7B67"/>
<path d="M25.0503 58.9301L24.7397 59.2001L30.1394 69.8601L30.6303 69.9601L25.0503 58.9301Z" fill="#FF7B67"/>
<path d="M14.772 30.0101L3.55188 7.83008V8.71008L14.3212 30.0101H14.772Z" fill="#FF7B67"/>
<path d="M28.1159 56.38L27.8053 56.63L34.8379 70.53L35.3087 70.57L28.1159 56.38Z" fill="#FF7B67"/>
<path d="M31.9928 55.41L31.552 55.43L39.3059 70.75H39.7567L31.9928 55.41Z" fill="#FF7B67"/>
<path d="M19.1298 29.99L3.94258 0H3.55188V0.12L18.6789 29.99H19.1298Z" fill="#FF7B67"/>
<path d="M23.4776 29.99L8.30041 0H7.85962L23.0368 30L23.4776 29.99Z" fill="#FF7B67"/>
<path d="M36.3506 55.41H35.8998L43.6637 70.75H44.1145L36.3506 55.41Z" fill="#FF7B67"/>
<path d="M27.8253 29.97L12.6582 0H12.2174L27.3845 29.97H27.8253Z" fill="#FF7B67"/>
<path d="M43.303 60.53H42.8522L48.0214 70.75H48.4722L43.303 60.53Z" fill="#FF7B67"/>
<path d="M32.1831 29.97L17.026 0H16.5752L31.7423 29.97H32.1831Z" fill="#FF7B67"/>
<path d="M47.6608 60.53H47.21L52.3792 70.75H52.83L47.6608 60.53Z" fill="#FF7B67"/>
<path d="M36.5309 29.93L21.3838 0H20.933L36.0801 29.93H36.5309Z" fill="#FF7B67"/>
<path d="M51.9785 60.45L51.5377 60.4799L56.737 70.75H57.1878L51.9785 60.45Z" fill="#FF7B67"/>
<path d="M60.7142 60.5L60.2734 60.51L65.4627 70.75H65.9035L60.7142 60.5Z" fill="#FF7B67"/>
<path d="M42.5617 24.58L30.0994 0H29.6486L42.0908 24.58H42.5617Z" fill="#FF7B67"/>
<path d="M65.3625 61.06L64.8315 60.89L69.8205 70.75H70.2613L65.3625 61.06Z" fill="#FF7B67"/>
<path d="M46.8894 24.57L34.4572 0H34.0063L46.4486 24.57H46.8894Z" fill="#FF7B67"/>
<path d="M51.2372 24.55L38.8149 0H38.3641L50.7964 24.55H51.2372Z" fill="#FF7B67"/>
<path d="M72.5453 66.65L71.7539 65.97L74.1782 70.75H74.6291L72.5453 66.65Z" fill="#FF7B67"/>
<path d="M20.5624 62.13C20.3314 62.1298 20.1029 62.0821 19.8912 61.99C19.5493 61.806 19.2709 61.5234 19.0922 61.1792C18.9135 60.8349 18.8428 60.4449 18.8894 60.06V55.87C18.8894 55.6048 18.7838 55.3504 18.596 55.1629C18.4081 54.9754 18.1533 54.87 17.8876 54.87H10.9652C10.5617 54.8843 10.1595 54.8172 9.78259 54.6729C9.40565 54.5286 9.0617 54.3099 8.77127 54.03C8.49017 53.7552 8.26726 53.4268 8.11582 53.0644C7.96437 52.7019 7.88748 52.3127 7.8897 51.92L7.82959 33.02C7.83777 32.6219 7.92524 32.2295 8.08692 31.8655C8.24859 31.5015 8.48123 31.1733 8.77127 30.9C9.04654 30.6194 9.37551 30.3969 9.73864 30.2457C10.1018 30.0945 10.4916 30.0178 10.8851 30.02L55.2244 29.87C56.0215 29.87 56.7859 30.1861 57.3495 30.7487C57.9131 31.3113 58.2298 32.0743 58.2298 32.87L58.2498 52.29C58.2491 53.0805 57.9359 53.8388 57.3783 54.4C57.103 54.6806 56.774 54.9031 56.4109 55.0543C56.0478 55.2055 55.6579 55.2822 55.2645 55.28L30.8107 55.37C29.7719 55.4337 28.7751 55.8025 27.9456 56.43L21.9949 61.5C21.6077 61.8733 21.0997 62.0967 20.5624 62.13V62.13ZM17.8475 52.88C18.6446 52.88 19.409 53.1961 19.9726 53.7587C20.5363 54.3213 20.8529 55.0843 20.8529 55.88V59.88L26.6733 54.88C27.866 53.9689 29.3102 53.4453 30.8107 53.38L55.2444 53.29C55.5087 53.2862 55.7607 53.1784 55.9457 52.99C56.1308 52.8037 56.2351 52.5523 56.2362 52.29L56.1761 32.84C56.1761 32.5748 56.0706 32.3204 55.8827 32.1329C55.6948 31.9454 55.44 31.84 55.1743 31.84L10.835 31.99C10.5707 31.9938 10.3187 32.1016 10.1337 32.29C9.94864 32.4763 9.8443 32.7277 9.84319 32.99L9.9033 51.89C9.90706 52.1538 10.0151 52.4054 10.2038 52.59C10.3904 52.7747 10.6423 52.8789 10.9051 52.88V52.88H17.8475V52.88Z" fill="#A9AEFF"/>
</g>
<defs>
<clipPath id="clip0">
<rect width="95" height="100" fill="white" transform="translate(2.5)"/>
</clipPath>
</defs>
</svg>
