<svg width="100" height="100" viewBox="0 0 100 100" fill="none" xmlns="http://www.w3.org/2000/svg">
<g clip-path="url(#clip0)">
<path d="M36.1976 15.0399L44.3812 31.2574H44.8503L36.6168 15.0798C36.4794 15.0481 36.3385 15.0347 36.1976 15.0399ZM31.976 14.98L40.1597 31.1576H40.5788L32.3952 14.98H31.976ZM27.7844 14.98L35.9281 31.1177H36.3473L28.2036 14.98H27.7844ZM23.5928 14.98L31.7365 31.0778H32.1557L24.012 14.98H23.5928ZM19.3713 14.98L27.4751 31.0379H27.8842L19.8204 14.98H19.3713ZM15.1796 14.98L23.3633 31.1177C23.5023 31.1374 23.6434 31.1374 23.7824 31.1177L15.6387 14.98H15.1796ZM10.988 14.98L19.4411 31.6566C19.5662 31.6111 19.6974 31.5842 19.8303 31.5768L11.4172 14.98H10.988ZM0.0798403 51.467L12.5649 76.1776L13.2934 76.7564L0.0399202 50.5488C0.0330595 50.8554 0.046395 51.1622 0.0798403 51.467V51.467ZM0 42.2055V43.0538L14.9102 72.485V71.5967L0 42.2055ZM14.7605 63.1636L0 33.9421V34.7904L14.7605 64.0319C14.7925 63.7267 14.7925 63.4189 14.7605 63.1137V63.1636ZM14.6806 54.6706L0 25.6087V26.457L14.6806 55.469V54.6207V54.6706ZM14.5309 46.0678L0 17.3053V18.1536L14.521 46.9161V46.0179L14.5309 46.0678ZM14.6806 38.0838L3.03393 14.98H2.61477L14.6407 38.7824C14.6407 38.5229 14.6806 38.2934 14.6806 38.0638V38.0838ZM6.80639 14.98L16.1776 33.5029C16.2248 33.4592 16.2651 33.4088 16.2974 33.3532C16.3365 33.2936 16.3875 33.2426 16.4471 33.2035L7.22555 14.98H6.80639ZM40.6188 15.479L48.6028 31.2375H49.022L41.0778 15.5788C40.9221 15.5717 40.7678 15.5448 40.6188 15.4989V15.479ZM49.3812 23.7425V23.6626L45.9581 16.8662C45.7824 16.7923 45.6024 16.729 45.4192 16.6766L49.3413 24.481C49.3365 24.2408 49.3499 24.0006 49.3812 23.7624V23.7425Z" fill="#A9AEFF"/>
<path d="M50.8383 32.2555H17.4451C16.5038 32.2529 15.5971 32.6099 14.9102 33.2535C14.5839 33.5886 14.3276 33.9854 14.1562 34.4206C13.9849 34.8558 13.9019 35.3208 13.9122 35.7884C13.9122 36.2076 13.9122 77.4052 13.9122 79.3214C13.9094 79.5086 13.9798 79.6895 14.1084 79.8256C14.2371 79.9616 14.4137 80.0421 14.6008 80.0499C14.7859 80.0456 14.9628 79.9728 15.0974 79.8456C15.2319 79.7184 15.3146 79.5459 15.3293 79.3613C15.3293 77.4352 15.3293 37.4451 15.3293 35.7884C15.3322 35.2353 15.5382 34.7026 15.9082 34.2914C16.1099 34.0907 16.3499 33.9324 16.6139 33.8262C16.8779 33.7199 17.1605 33.6677 17.4451 33.6727H50.2595C50.2796 33.1469 50.4846 32.6451 50.8383 32.2555V32.2555Z" fill="#1BE6E1"/>
<path d="M99.3314 80.2894C99.2727 80.1986 99.1931 80.1232 99.0994 80.0694C99.0057 80.0156 98.9004 79.9849 98.7925 79.98H91.8763C92.3486 79.5289 92.7247 78.9869 92.9819 78.3866C93.2392 77.7863 93.3723 77.1401 93.3733 76.487V57.8143H94.531C95.2995 57.8091 96.0346 57.4994 96.5752 56.9532C97.1158 56.4069 97.4179 55.6687 97.4152 54.9002V33.2535C97.41 32.4901 97.1044 31.7595 96.5647 31.2198C96.0249 30.68 95.2943 30.3745 94.531 30.3692H89.7605V24.96C89.7829 24.8716 89.7829 24.779 89.7605 24.6906C89.78 24.6018 89.78 24.5099 89.7605 24.4211V21.7265C89.7553 20.9632 89.4497 20.2326 88.91 19.6928C88.3702 19.1531 87.6396 18.8475 86.8763 18.8423H52.0659C51.3026 18.8475 50.572 19.1531 50.0322 19.6928C49.4924 20.2326 49.1869 20.9632 49.1817 21.7265V30.9481H17.2954C16.665 30.9481 16.0408 31.0722 15.4584 31.3135C14.876 31.5547 14.3468 31.9083 13.901 32.3541C13.4553 32.7998 13.1017 33.329 12.8604 33.9114C12.6192 34.4938 12.495 35.1181 12.495 35.7485V76.467C12.4937 77.1205 12.6257 77.7674 12.8832 78.368C13.1406 78.9686 13.5179 79.5104 13.992 79.96H6.92617C6.77311 79.9635 6.62572 80.0187 6.50795 80.1165C6.39018 80.2143 6.30895 80.3491 6.27747 80.499C6.12713 81.0273 6.09032 81.5814 6.16944 82.125C6.24856 82.6685 6.44184 83.1891 6.73655 83.6527C7.3006 84.3844 8.12753 84.8677 9.04194 85H97.1457C97.2536 84.9973 97.3594 84.9699 97.4551 84.9201C97.9914 84.7012 98.4735 84.3682 98.8682 83.9443C99.2628 83.5203 99.5605 83.0156 99.7406 82.465C99.8351 82.0957 99.8493 81.7103 99.7821 81.335C99.715 80.9596 99.5681 80.6031 99.3513 80.2894H99.3314ZM95.4891 33.2535V54.9002C95.4891 55.1649 95.3839 55.4187 95.1967 55.6059C95.0096 55.793 94.7557 55.8982 94.491 55.8982H59.7106C59.4459 55.8982 59.1921 55.793 59.0049 55.6059C58.8177 55.4187 58.7126 55.1649 58.7126 54.9002V33.2535C58.7126 32.9888 58.8177 32.7349 59.0049 32.5478C59.1921 32.3606 59.4459 32.2555 59.7106 32.2555H94.521C94.7805 32.2632 95.0267 32.3718 95.2074 32.5581C95.3881 32.7445 95.4892 32.9939 95.4891 33.2535ZM59.7106 30.3792C58.9473 30.3844 58.2167 30.69 57.6769 31.2298C57.1372 31.7695 56.8316 32.5001 56.8264 33.2634V44.4411H52.0659C51.8012 44.4411 51.5474 44.3359 51.3602 44.1488C51.173 43.9616 51.0679 43.7078 51.0679 43.4431V25.6886H87.8443V30.3792H59.7106ZM52.0659 20.8483H86.8763C87.141 20.8483 87.3948 20.9534 87.582 21.1406C87.7691 21.3277 87.8743 21.5816 87.8743 21.8463V23.8423H51.1078V21.8463C51.1076 21.5884 51.2073 21.3404 51.3859 21.1543C51.5645 20.9683 51.8082 20.8586 52.0659 20.8483V20.8483ZM13.9122 35.8283C13.9122 34.9416 14.2644 34.0912 14.8914 33.4642C15.5184 32.8372 16.3688 32.485 17.2555 32.485H49.1916V43.5129C49.1969 44.2763 49.5024 45.0069 50.0422 45.5466C50.582 46.0864 51.3125 46.3919 52.0759 46.3972H56.8264V54.97C56.8237 55.3522 56.8966 55.7312 57.0407 56.0852C57.1849 56.4393 57.3975 56.7613 57.6664 57.033C57.9353 57.3046 58.2551 57.5206 58.6076 57.6683C58.9601 57.8161 59.3384 57.8929 59.7206 57.8942H91.9262V76.5269C91.9209 77.4101 91.5663 78.2554 90.9399 78.8781C90.3135 79.5008 89.4661 79.8503 88.5829 79.8503H17.2954C16.8547 79.8555 16.4173 79.7736 16.0084 79.6092C15.5994 79.4448 15.227 79.2011 14.9126 78.8923C14.5981 78.5834 14.3479 78.2154 14.1762 77.8095C14.0045 77.4035 13.9148 76.9677 13.9122 76.5269V35.8283Z" fill="#1A0B4C"/>
<path d="M62.9441 43.5129H71.6667C71.9314 43.5129 72.1852 43.4078 72.3724 43.2206C72.5595 43.0334 72.6647 42.7796 72.6647 42.5149V36.6766C72.6647 36.4119 72.5595 36.1581 72.3724 35.9709C72.1852 35.7837 71.9314 35.6786 71.6667 35.6786H62.9441C62.6794 35.6786 62.4256 35.7837 62.2384 35.9709C62.0513 36.1581 61.9461 36.4119 61.9461 36.6766V42.5548C61.9564 42.8125 62.0661 43.0562 62.2522 43.2349C62.4382 43.4135 62.6862 43.5131 62.9441 43.5129V43.5129ZM71.3573 47.6247H63.2834C63.0761 47.6852 62.894 47.8112 62.7645 47.984C62.6349 48.1567 62.5649 48.3668 62.5649 48.5828C62.5649 48.7987 62.6349 49.0088 62.7645 49.1816C62.894 49.3543 63.0761 49.4804 63.2834 49.5409H71.3573C71.622 49.5409 71.8758 49.4357 72.063 49.2486C72.2501 49.0614 72.3553 48.8075 72.3553 48.5429C72.3352 48.2922 72.2212 48.0585 72.0362 47.8882C71.8512 47.718 71.6087 47.6239 71.3573 47.6247Z" fill="#1A0B4C"/>
<path d="M60.7185 82.7146C62.7146 82.2955 62.2954 81.3673 62.2954 81.3673H44.8503C44.8503 81.3673 44.8503 82.7845 46.5369 82.6747H60.7585L60.7185 82.7146Z" fill="#A9AEFF"/>
<path d="M43.7326 68.8722H31.2076C30.6582 68.863 30.1271 68.6733 29.696 68.3324C29.265 67.9916 28.958 67.5185 28.8224 66.986L25.1298 52.3852C25.093 52.2633 25.0232 52.1541 24.928 52.0695C24.8329 51.9849 24.7162 51.9284 24.5908 51.9062H21.2875C21.1387 51.9495 20.9819 51.9577 20.8295 51.93C20.677 51.9023 20.5332 51.8394 20.4092 51.7465C20.2853 51.6535 20.1847 51.533 20.1154 51.3944C20.0461 51.2558 20.01 51.103 20.01 50.9481C20.01 50.7931 20.0461 50.6403 20.1154 50.5018C20.1847 50.3632 20.2853 50.2426 20.4092 50.1497C20.5332 50.0567 20.677 49.9939 20.8295 49.9662C20.9819 49.9385 21.1387 49.9466 21.2875 49.99H24.5908C25.1443 50.001 25.6785 50.1949 26.11 50.5416C26.5415 50.8883 26.8461 51.3681 26.9761 51.9062L30.6687 66.507C30.7143 66.6176 30.788 66.7145 30.8825 66.788C30.9771 66.8615 31.0891 66.9091 31.2076 66.9261H43.7326C43.9972 66.9261 44.2511 67.0313 44.4383 67.2184C44.6254 67.4056 44.7306 67.6594 44.7306 67.9241C44.7178 68.1801 44.607 68.4213 44.4212 68.5978C44.2354 68.7743 43.9888 68.8725 43.7326 68.8722V68.8722Z" fill="#1BE6E1"/>
<path d="M44.3812 63.6127H29.4112C29.2624 63.6561 29.1056 63.6643 28.9532 63.6366C28.8008 63.6088 28.6569 63.546 28.5329 63.4531C28.409 63.3601 28.3084 63.2396 28.2391 63.101C28.1698 62.9624 28.1337 62.8096 28.1337 62.6547C28.1337 62.4997 28.1698 62.3469 28.2391 62.2083C28.3084 62.0698 28.409 61.9492 28.5329 61.8563C28.6569 61.7633 28.8008 61.7005 28.9532 61.6727C29.1056 61.645 29.2624 61.6532 29.4112 61.6966H43.6128L45.4591 54.3612H27.016C26.8672 54.4046 26.7104 54.4128 26.558 54.3851C26.4056 54.3573 26.2617 54.2945 26.1377 54.2016C26.0138 54.1086 25.9132 53.9881 25.8439 53.8495C25.7746 53.7109 25.7385 53.5581 25.7385 53.4032C25.7385 53.2482 25.7746 53.0954 25.8439 52.9568C25.9132 52.8183 26.0138 52.6977 26.1377 52.6048C26.2617 52.5118 26.4056 52.449 26.558 52.4212C26.7104 52.3935 26.8672 52.4017 27.016 52.4451H46.6866C46.8357 52.4484 46.982 52.4852 47.115 52.5525C47.248 52.6199 47.3642 52.7161 47.4551 52.8343C47.5429 52.9475 47.6052 53.0783 47.638 53.2178C47.6707 53.3573 47.673 53.5022 47.6447 53.6427L45.3393 62.8842C45.2726 63.0886 45.1452 63.2678 44.974 63.398C44.8028 63.5282 44.5961 63.6031 44.3812 63.6127V63.6127ZM31.008 73.5229C30.5183 73.5229 30.0487 73.3284 29.7024 72.9821C29.3562 72.6359 29.1617 72.1663 29.1617 71.6766C29.1617 71.4341 29.2094 71.1941 29.3022 70.9701C29.395 70.7461 29.531 70.5425 29.7024 70.3711C29.8739 70.1996 30.0774 70.0636 30.3014 69.9708C30.5254 69.8781 30.7655 69.8303 31.008 69.8303C31.2504 69.8303 31.4905 69.8781 31.7145 69.9708C31.9385 70.0636 32.1421 70.1996 32.3135 70.3711C32.485 70.5425 32.621 70.7461 32.7138 70.9701C32.8065 71.1941 32.8543 71.4341 32.8543 71.6766C32.8543 72.1663 32.6598 72.6359 32.3135 72.9821C31.9673 73.3284 31.4977 73.5229 31.008 73.5229V73.5229ZM31.008 71.6067C30.9876 71.6089 30.9685 71.618 30.954 71.6326C30.9394 71.6471 30.9303 71.6662 30.9281 71.6866C30.9281 71.7664 31.0778 71.7664 31.0778 71.6866C31.0793 71.6766 31.0786 71.6664 31.0757 71.6568C31.0728 71.6471 31.0679 71.6382 31.0613 71.6306C31.0546 71.623 31.0464 71.617 31.0372 71.6128C31.028 71.6087 31.0181 71.6066 31.008 71.6067V71.6067ZM42.5349 73.6028C42.0453 73.6028 41.5756 73.4082 41.2294 73.062C40.8831 72.7157 40.6886 72.2461 40.6886 71.7564C40.6886 71.2668 40.8831 70.7972 41.2294 70.4509C41.5756 70.1047 42.0453 69.9101 42.5349 69.9101C43.0246 69.9101 43.4942 70.1047 43.8405 70.4509C44.1867 70.7972 44.3812 71.2668 44.3812 71.7564C44.3866 72.0022 44.3427 72.2466 44.2523 72.4753C44.1619 72.7039 44.0268 72.9122 43.8548 73.0879C43.6828 73.2636 43.4775 73.4031 43.2508 73.4984C43.0242 73.5937 42.7808 73.6427 42.5349 73.6427V73.6028ZM42.5349 71.6766C42.5145 71.6788 42.4954 71.6879 42.4809 71.7024C42.4664 71.7169 42.4573 71.736 42.4551 71.7564C42.4551 71.8363 42.6048 71.8363 42.6048 71.7564C42.5987 71.7434 42.5887 71.7326 42.5762 71.7254C42.5637 71.7183 42.5493 71.7152 42.5349 71.7165V71.6766Z" fill="#1BE6E1"/>
<path d="M90.0299 53.1637C91.3473 53.1637 92.4152 52.0957 92.4152 50.7784C92.4152 49.4611 91.3473 48.3932 90.0299 48.3932C88.7126 48.3932 87.6447 49.4611 87.6447 50.7784C87.6447 52.0957 88.7126 53.1637 90.0299 53.1637Z" fill="#1BE6E1"/>
</g>
<defs>
<clipPath id="clip0">
<rect width="99.8004" height="70" fill="white" transform="translate(0 15)"/>
</clipPath>
</defs>
</svg>
