<svg width="100" height="100" viewBox="0 0 100 100" fill="none" xmlns="http://www.w3.org/2000/svg">
<g clip-path="url(#clip0)">
<path d="M67.7539 82.4352L76.714 100H77.2173L68.2573 82.4352H67.7539ZM72.385 82.4352L81.345 100H81.8484L72.8883 82.4352H72.385ZM76.8147 82.1358L85.8754 100H86.3787L77.318 82.036C77.1634 82.1166 76.9886 82.1513 76.8147 82.1358V82.1358ZM80.8416 80.9382L90.5064 100H91.0098L81.2443 80.7386C81.043 80.8384 80.9423 80.8384 80.8416 80.9382ZM83.4592 77.0459L95.1374 100H95.6408L83.5598 76.4471C83.5757 76.6519 83.5412 76.8574 83.4592 77.0459ZM30.8064 82.1358L33.2226 86.8264C33.564 87.25 33.9339 87.6501 34.33 88.024L31.3098 82.1358H30.8064ZM35.3367 82.1358L41.3772 94.012C41.5889 94.1818 41.8269 94.3167 42.0819 94.4112L35.8401 82.1358H35.3367ZM84.0632 69.1617L99.7684 100H99.9698V99.501L84.0632 68.1637V69.1617ZM39.9678 82.1358L47.619 97.2056L48.2231 97.505L40.4711 82.2356L39.9678 82.1358V82.1358ZM83.8619 59.8803L99.8691 91.4172V90.519L83.7612 58.9821C83.8566 59.2714 83.8909 59.5772 83.8619 59.8803ZM44.5988 82.2356L53.1561 99.002C53.3575 99.002 53.4582 99.1018 53.6595 99.1018L45.1022 82.2356H44.5988ZM83.7612 50.499L99.9698 82.2356V81.3374L83.7612 49.6008V50.499ZM49.2298 82.2356L58.1899 99.8004H58.6932L49.7332 82.2356H49.2298ZM85.07 44.1118L99.9698 73.2535V72.3553L85.07 43.2136V44.1118ZM53.8609 82.3354L62.9216 100H63.4249L54.4649 82.3354H53.8609ZM88.1909 40.02C88.1366 39.9658 88.0658 39.9307 87.9895 39.9202V40.7186L99.9698 64.2715V63.3733L88.1909 40.02ZM58.4919 82.3354L67.4519 100H67.9553L58.9953 82.3354H58.4919ZM97.9563 50.499L93.0232 40.7186C92.5199 40.1198 92.1172 39.4212 91.6138 38.8224L98.661 52.7944C98.5009 52.0087 98.2649 51.24 97.9563 50.499V50.499ZM63.1229 82.3354L72.0829 99.9002H72.5863L63.6263 82.3354H63.1229Z" fill="#FF7B67"/>
<path d="M63.1229 61.6766C65.5138 61.6766 67.4519 59.7553 67.4519 57.3852C67.4519 55.0151 65.5138 53.0938 63.1229 53.0938C60.7321 53.0938 58.7939 55.0151 58.7939 57.3852C58.7939 59.7553 60.7321 61.6766 63.1229 61.6766Z" fill="#1BE6E1"/>
<path d="M30.1017 1.69666C28.2602 1.6993 26.4948 2.42565 25.1927 3.7165C23.8905 5.00735 23.1578 6.75735 23.1551 8.58288V23.1537C23.8079 22.8048 24.5292 22.6005 25.2693 22.5549V8.58288C25.2875 7.31801 25.8025 6.11001 26.7048 5.21551C27.6071 4.32102 28.8257 3.81052 30.1017 3.79246L70.9755 3.89226V1.79646L30.1017 1.69666ZM26.3767 58.2835V48.503H24.5646C23.8023 48.507 23.056 48.2863 22.4204 47.8689C21.7849 47.4515 21.2889 46.8563 20.9953 46.1588C20.7018 45.4614 20.6239 44.6932 20.7717 43.9518C20.9194 43.2105 21.2861 42.5293 21.8251 41.995C22.3642 41.4606 23.0513 41.0971 23.7992 40.9506C24.547 40.8042 25.3219 40.8813 26.0255 41.1724C26.729 41.4634 27.3294 41.9551 27.7505 42.5851C28.1715 43.2151 28.3942 43.9549 28.3902 44.7106V46.4072H29.9003V44.7106C29.9003 43.7048 30.3034 42.7402 31.0208 42.029C31.7383 41.3178 32.7113 40.9182 33.726 40.9182V40.9182C34.7406 40.9182 35.7136 41.3178 36.4311 42.029C37.1485 42.7402 37.5516 43.7048 37.5516 44.7106C37.5274 45.7183 37.1196 46.6797 36.41 47.4017C35.7004 48.1236 34.7415 48.5527 33.726 48.6028H31.9138V58.3833H29.7997V48.6028H28.3902V58.3833L26.3767 58.2835V58.2835ZM24.6653 42.9142C24.4404 42.9125 24.2175 42.9559 24.0099 43.0416C23.8023 43.1274 23.6143 43.2538 23.4572 43.4132C23.2187 43.6505 23.0563 43.9524 22.9906 44.281C22.9249 44.6095 22.9588 44.95 23.088 45.2595C23.2172 45.569 23.4359 45.8337 23.7166 46.0202C23.9973 46.2067 24.3274 46.3066 24.6653 46.3074H26.4774V44.6108C26.4791 44.3879 26.4354 44.1669 26.3489 43.9611C26.2624 43.7554 26.1349 43.569 25.974 43.4132C25.6073 43.1048 25.1459 42.9289 24.6653 42.9142ZM32.1152 46.4072H33.9273C34.2658 46.4072 34.5967 46.3077 34.8782 46.1213C35.1596 45.9349 35.379 45.6699 35.5085 45.3599C35.638 45.0499 35.6719 44.7087 35.6059 44.3796C35.5399 44.0505 35.3769 43.7482 35.1375 43.5109C34.8981 43.2737 34.5932 43.1121 34.2612 43.0466C33.9292 42.9812 33.5851 43.0148 33.2724 43.1432C32.9596 43.2716 32.6923 43.489 32.5043 43.768C32.3162 44.0471 32.2158 44.3751 32.2158 44.7106L32.1152 46.4072V46.4072Z" fill="#1BE6E1"/>
<path d="M98.359 24.0519C97.8206 23.4822 97.1732 23.0246 96.4545 22.7057C95.7358 22.3867 94.9602 22.2129 94.1729 22.1943C93.3857 22.1757 92.6026 22.3128 91.8694 22.5974C91.1362 22.8821 90.4675 23.3087 89.9024 23.8523L84.9693 28.5429V14.1717L84.6673 13.8723L71.3783 0.598802L71.0762 0.299401L29.1956 0C27.1138 0.00264076 25.118 0.823632 23.6459 2.28292C22.1739 3.74222 21.3457 5.72068 21.343 7.78443V22.8543C18.6507 24.3448 16.4038 26.5146 14.8302 29.1437C13.2566 31.7727 12.4124 34.7675 12.383 37.8244C12.5166 42.1869 14.2738 46.3461 17.316 49.501C18.9004 51.2942 19.7609 53.6044 19.7322 55.988V61.2774C19.7141 61.832 19.856 62.3802 20.1414 62.8575C20.4267 63.3349 20.8436 63.7215 21.343 63.9721V75.3493C21.3457 77.4131 22.1739 79.3915 23.6459 80.8508C25.118 82.3101 27.1138 83.1311 29.1956 83.1337L77.016 83.3333C79.0979 83.3307 81.0937 82.5097 82.5657 81.0504C84.0378 79.5911 84.866 77.6127 84.8687 75.5489V45.01L98.1577 32.4351C99.2917 31.3421 99.9481 29.8518 99.9858 28.2843C100.023 26.7168 99.4393 25.1972 98.359 24.0519V24.0519ZM81.2444 13.5729H75.7073C74.6392 13.5729 73.615 13.1523 72.8598 12.4036C72.1046 11.655 71.6803 10.6396 71.6803 9.58084V3.99202L80.3383 12.6747L81.2444 13.5729ZM19.0275 48.1038C16.3132 45.3021 14.7361 41.6067 14.5978 37.7246C14.6099 33.8094 16.1636 30.0537 18.9279 27.2575C21.6922 24.4613 25.4486 22.8455 29.397 22.7545C33.3556 22.8425 37.1242 24.4541 39.9052 27.2482C42.6862 30.0423 44.2612 33.7995 44.2968 37.7246C44.1586 41.6067 42.5815 45.3021 39.8671 48.1038C37.9296 50.2354 36.8854 53.0196 36.9476 55.8882V57.8842H21.9471V55.988C21.9979 53.0913 20.9568 50.28 19.0275 48.1038V48.1038ZM23.0545 62.1756C22.7616 62.173 22.4814 62.0565 22.2743 61.8512C22.0672 61.6459 21.9497 61.3682 21.9471 61.0778V59.8802H36.8469V61.0778C36.8443 61.3682 36.7268 61.6459 36.5196 61.8512C36.3125 62.0565 36.0324 62.173 35.7395 62.1756H23.0545ZM33.1219 64.2715C32.8984 65.0601 32.4259 65.7569 31.7736 66.2598C31.1214 66.7627 30.3237 67.0452 29.4977 67.0659C28.6637 67.0754 27.8511 66.8043 27.1928 66.2967C26.5344 65.7891 26.0693 65.0751 25.8734 64.2715H33.1219ZM82.7545 75.5489C82.7388 77.0528 82.1291 78.4907 81.0564 79.5541C79.9836 80.6176 78.5331 81.2219 77.016 81.2375L29.1956 80.9381C27.6786 80.9225 26.2281 80.3182 25.1553 79.2547C24.0825 78.1913 23.4729 76.7534 23.4572 75.2495V64.2715C23.6876 65.6417 24.4008 66.8864 25.47 67.7843C26.5392 68.6822 27.895 69.175 29.2963 69.175C30.6976 69.175 32.0534 68.6822 33.1226 67.7843C34.1918 66.8864 34.9051 65.6417 35.1354 64.2715H35.6388C36.0634 64.2768 36.4847 64.1979 36.878 64.0393C37.2713 63.8807 37.6286 63.6457 37.9289 63.348C38.2291 63.0504 38.4662 62.6962 38.6262 62.3063C38.7862 61.9164 38.8658 61.4987 38.8604 61.0778V55.7884C38.8147 53.4318 39.679 51.1469 41.2766 49.4012C44.327 46.2516 46.0855 42.0891 46.2096 37.7246C46.1892 33.2391 44.3963 28.9401 41.2157 25.7498C38.035 22.5594 33.7199 20.7317 29.1956 20.6587C27.1969 20.6565 25.2157 21.029 23.3565 21.7565V7.78443C23.3722 6.28055 23.9819 4.84266 25.0547 3.7792C26.1274 2.71573 27.5779 2.11139 29.095 2.09581L69.4655 2.39521V9.58084C69.4601 10.3818 69.6153 11.1758 69.922 11.9168C70.2287 12.6578 70.6809 13.331 71.2522 13.8974C71.8236 14.4638 72.5027 14.912 73.2502 15.2161C73.9977 15.5201 74.7986 15.674 75.6066 15.6687H82.5531V30.5389L66.6466 45.8084C66.3847 46.0456 66.208 46.3609 66.1432 46.7066L63.727 54.491C63.5617 55.0175 63.5975 55.5859 63.8277 56.0878C64.1032 56.5478 64.5296 56.9002 65.0358 57.0858C65.226 57.1671 65.4333 57.2014 65.6398 57.1856C65.8138 57.2012 65.9886 57.1665 66.1432 57.0858L74.0965 54.99C74.4187 54.8626 74.7232 54.6949 75.0025 54.491L82.8552 47.006L82.7545 75.5489V75.5489ZM67.6533 48.503L72.1837 53.1936L65.6398 54.8902L67.6533 48.503ZM74.1971 52.1956L68.7607 46.6068L88.8956 27.5449L94.3321 33.1337L74.1971 52.1956ZM96.6476 30.9381L95.8422 31.7365L90.4058 26.1477L91.2111 25.3493C91.9578 24.6886 92.9287 24.3321 93.9294 24.3513C94.4573 24.3461 94.9806 24.45 95.4659 24.6561C95.9512 24.8623 96.3879 25.1663 96.7482 25.5489C97.1111 25.9025 97.3974 26.3258 97.5898 26.7927C97.7821 27.2597 97.8765 27.7607 97.867 28.265C97.8576 28.7693 97.7446 29.2664 97.535 29.726C97.3253 30.1856 97.0234 30.598 96.6476 30.9381V30.9381Z" fill="#1A0B4C"/>
<path d="M57.6865 35.2296H51.4447C51.1777 35.2296 50.9216 35.3347 50.7328 35.5219C50.544 35.709 50.4379 35.9629 50.4379 36.2276C50.4379 36.4923 50.544 36.7461 50.7328 36.9333C50.9216 37.1204 51.1777 37.2256 51.4447 37.2256H57.6865C57.9535 37.2256 58.2096 37.1204 58.3984 36.9333C58.5872 36.7461 58.6932 36.4923 58.6932 36.2276C58.7939 35.6288 58.2905 35.2296 57.6865 35.2296ZM7.24857 35.2296H1.00675C0.73974 35.2296 0.48367 35.3347 0.294869 35.5219C0.106068 35.709 0 35.9629 0 36.2276C0 36.4923 0.106068 36.7461 0.294869 36.9333C0.48367 37.1204 0.73974 37.2256 1.00675 37.2256H7.24857C7.51557 37.2256 7.77164 37.1204 7.96044 36.9333C8.14924 36.7461 8.25531 36.4923 8.25531 36.2276C8.35599 35.6288 7.85261 35.2296 7.24857 35.2296V35.2296ZM29.397 8.28346C29.13 8.28346 28.8739 8.38861 28.6851 8.57577C28.4963 8.76293 28.3902 9.01678 28.3902 9.28146V15.4691C28.3902 15.7338 28.4963 15.9876 28.6851 16.1748C28.8739 16.3619 29.13 16.4671 29.397 16.4671C29.6578 16.4486 29.9031 16.3375 30.088 16.1542C30.2729 15.9709 30.385 15.7276 30.4037 15.4691V9.38126C30.4178 9.24207 30.4023 9.10148 30.358 8.96863C30.3138 8.83578 30.2419 8.71364 30.1469 8.61012C30.052 8.5066 29.9362 8.42403 29.807 8.36775C29.6778 8.31148 29.5381 8.28276 29.397 8.28346V8.28346ZM51.344 15.7685C51.1401 15.5769 50.8699 15.47 50.5889 15.47C50.308 15.47 50.0378 15.5769 49.8339 15.7685L45.4042 20.1597C45.2109 20.3618 45.1031 20.6297 45.1031 20.9082C45.1031 21.1867 45.2109 21.4546 45.4042 21.6567C45.6234 21.8562 45.9121 21.9636 46.2096 21.9561C46.504 21.9468 46.7871 21.8416 47.015 21.6567L51.4447 17.2655C51.6042 17.0426 51.6813 16.772 51.663 16.4992C51.6447 16.2265 51.532 15.9684 51.344 15.7685V15.7685ZM13.3897 21.5569C13.583 21.3548 13.6908 21.0869 13.6908 20.8084C13.6908 20.5299 13.583 20.262 13.3897 20.0599L8.96003 15.6687C8.75978 15.4702 8.48818 15.3586 8.20497 15.3586C7.92177 15.3586 7.65017 15.4702 7.44991 15.6687C7.24966 15.8672 7.13716 16.1364 7.13716 16.4172C7.13716 16.6979 7.24966 16.9672 7.44991 17.1657L11.8796 21.5569C12.0988 21.7564 12.3875 21.8638 12.685 21.8563C12.8173 21.8598 12.9488 21.8349 13.0705 21.7832C13.1921 21.7315 13.301 21.6543 13.3897 21.5569V21.5569Z" fill="#1A0B4C"/>
<path d="M71.7809 3.89221V9.68064C71.8136 10.6762 72.2272 11.622 72.9377 12.3264C73.6482 13.0307 74.6023 13.4406 75.6066 13.4731H81.345C81.2443 13.4731 71.7809 3.89221 71.7809 3.89221Z" fill="#A9AEFF"/>
</g>
<defs>
<clipPath id="clip0">
<rect width="100" height="100" fill="white"/>
</clipPath>
</defs>
</svg>
