<svg width="100" height="100" viewBox="0 0 100 100" fill="none" xmlns="http://www.w3.org/2000/svg">
<g clip-path="url(#clip0)">
<path d="M19.6182 73.03L2.05999 81.92V82.4L19.6582 73.49C19.6232 73.3394 19.6097 73.1845 19.6182 73.03V73.03ZM19.9981 77.43L2.05999 86.49V86.95L20.0581 77.85C20.0077 77.7156 19.9807 77.5736 19.9781 77.43H19.9981ZM21.338 81.33L2.05999 91.06V91.52L21.608 81.62C21.4933 81.5497 21.3999 81.4495 21.338 81.33V81.33ZM19.9581 31.67L13.9588 34.67C13.6188 35.01 13.2888 35.3 12.9589 35.67L19.9581 32.19V31.73V31.67ZM25.6575 83.72L2.05999 95.68V96.14L26.3675 83.85L25.6575 83.72ZM19.9081 36.24L7.61941 42.45C7.49394 42.6822 7.35367 42.906 7.19946 43.12L19.9081 36.74V36.24ZM33.8367 84.24L2.54994 99.96H3.46985L34.7966 84.15C34.4761 84.1336 34.1547 84.147 33.8367 84.19V84.24ZM19.8381 40.91L4.55973 48.57C4.47215 48.76 4.40188 48.9575 4.34975 49.16L19.8681 41.32L19.8381 40.91ZM43.2357 84.02L11.649 100.02H12.5689L44.1956 84.02C43.8627 83.9983 43.5287 83.9983 43.1957 84.02H43.2357ZM19.8281 45.47L2.9299 53.99L2.79992 54.54L19.7981 45.94L19.8281 45.47ZM52.5047 83.89L20.6681 99.96H21.588L53.4646 83.85C53.1459 83.8842 52.8252 83.8975 52.5047 83.89ZM19.7881 50.08L2.16998 58.98C2.16998 59.15 2.16998 59.32 2.16998 59.48L19.7881 50.59C19.8051 50.4205 19.8051 50.2496 19.7881 50.08ZM61.7838 83.77L29.7871 99.96H30.707L62.7737 83.77H61.7838ZM19.6982 54.66L2.05999 63.59V64.05L19.7581 55.12C19.717 54.9702 19.6968 54.8154 19.6982 54.66V54.66ZM64.3735 87.08L38.8262 100H39.7461L64.6135 87.4C64.5335 87.27 64.4135 87.14 64.3735 87.06V87.08ZM19.6582 59.27L2.05999 68.2V68.66L19.7182 59.77C19.698 59.604 19.698 59.4361 19.7182 59.27H19.6582ZM61.4738 93.12L51.7048 98.03C55.1724 96.8528 58.46 95.2004 61.4738 93.12V93.12ZM19.6182 64.05V63.88L2 72.78V73.24L19.6182 64.4V64.1V64.05ZM19.6182 68.46L2.05999 77.4V77.86L19.6382 69.01C19.5946 68.8301 19.5744 68.6452 19.5782 68.46H19.6182Z" fill="#1BE6E1"/>
<path d="M22.6778 13.21H20.828V6.63001C20.8307 5.33922 21.3446 4.10205 22.2572 3.18932C23.1698 2.27659 24.4069 1.76265 25.6975 1.76001H90.1208V3.61001H25.7375C24.942 3.61001 24.179 3.92608 23.6164 4.48869C23.0539 5.0513 22.7378 5.81436 22.7378 6.61001V13.2L22.6778 13.21ZM81.6117 69.92H79.262C79.0625 69.9214 78.8647 69.8829 78.6803 69.8069C78.4958 69.7308 78.3284 69.6187 78.1878 69.4772C78.0472 69.3356 77.9362 69.1675 77.8614 68.9825C77.7866 68.7975 77.7494 68.5995 77.7521 68.4V65.94C77.3478 65.8092 76.9562 65.6418 76.5822 65.44L74.8624 67.16C74.7221 67.3009 74.5554 67.4127 74.3718 67.489C74.1882 67.5653 73.9913 67.6046 73.7925 67.6046C73.5937 67.6046 73.3969 67.5653 73.2133 67.489C73.0297 67.4127 72.8629 67.3009 72.7226 67.16L71.0528 65.48C70.9119 65.3397 70.8001 65.173 70.7239 64.9893C70.6476 64.8057 70.6083 64.6088 70.6083 64.41C70.6083 64.2112 70.6476 64.0143 70.7239 63.8307C70.8001 63.6471 70.9119 63.4803 71.0528 63.34L72.8126 61.58C72.6196 61.2018 72.4526 60.8109 72.3127 60.41H69.8329C69.6343 60.4113 69.4374 60.3732 69.2536 60.2978C69.0698 60.2224 68.9028 60.1112 68.7624 59.9707C68.6219 59.8302 68.5107 59.6632 68.4353 59.4794C68.3599 59.2956 68.3218 59.0987 68.3231 58.9V56.55C68.3218 56.3513 68.3599 56.1544 68.4353 55.9706C68.5107 55.7868 68.6219 55.6198 68.7624 55.4793C68.9028 55.3388 69.0698 55.2277 69.2536 55.1522C69.4374 55.0768 69.6343 55.0387 69.8329 55.04H72.3027C72.4327 54.66 72.5926 54.24 72.7626 53.87L71.0528 52.15C70.9119 52.0097 70.8001 51.843 70.7239 51.6593C70.6476 51.4757 70.6083 51.2788 70.6083 51.08C70.6083 50.8812 70.6476 50.6843 70.7239 50.5007C70.8001 50.3171 70.9119 50.1503 71.0528 50.01L72.7326 48.33C72.8729 48.1891 73.0396 48.0773 73.2232 48.001C73.4068 47.9247 73.6037 47.8855 73.8025 47.8855C74.0013 47.8855 74.1982 47.9247 74.3818 48.001C74.5654 48.0773 74.7321 48.1891 74.8724 48.33L76.6322 50.09C77.0122 49.92 77.3921 49.75 77.8021 49.59V47.24C77.8008 47.0413 77.8389 46.8444 77.9143 46.6606C77.9897 46.4768 78.1009 46.3098 78.2414 46.1693C78.3818 46.0288 78.5488 45.9177 78.7326 45.8422C78.9164 45.7668 79.1133 45.7287 79.312 45.73H81.6517C81.8504 45.7287 82.0473 45.7668 82.2311 45.8422C82.4148 45.9177 82.5818 46.0288 82.7223 46.1693C82.8628 46.3098 82.9739 46.4768 83.0493 46.6606C83.1247 46.8444 83.1629 47.0413 83.1615 47.24V49.71C83.5659 49.8408 83.9575 50.0082 84.3314 50.21L86.0512 48.45C86.1915 48.3091 86.3583 48.1973 86.5419 48.121C86.7255 48.0447 86.9223 48.0055 87.1211 48.0055C87.32 48.0055 87.5168 48.0447 87.7004 48.121C87.884 48.1973 88.0507 48.3091 88.191 48.45L89.8709 50.13C90.0117 50.2703 90.1235 50.4371 90.1998 50.6207C90.2761 50.8043 90.3153 51.0012 90.3153 51.2C90.3153 51.3988 90.2761 51.5957 90.1998 51.7793C90.1235 51.963 90.0117 52.1297 89.8709 52.27L88.111 54.03C88.2909 54.409 88.4446 54.7999 88.571 55.2H91.0507C91.2494 55.1987 91.4463 55.2368 91.6301 55.3122C91.8139 55.3877 91.9808 55.4988 92.1213 55.6393C92.2618 55.7798 92.3729 55.9468 92.4483 56.1306C92.5238 56.3144 92.5619 56.5113 92.5606 56.71V59.06C92.5619 59.2587 92.5238 59.4556 92.4483 59.6394C92.3729 59.8232 92.2618 59.9902 92.1213 60.1307C91.9808 60.2712 91.8139 60.3824 91.6301 60.4578C91.4463 60.5332 91.2494 60.5713 91.0507 60.57H88.571C88.4477 60.9771 88.28 61.3695 88.071 61.74L89.8309 63.46C89.9717 63.6003 90.0835 63.7671 90.1598 63.9507C90.2361 64.1343 90.2754 64.3312 90.2754 64.53C90.2754 64.7288 90.2361 64.9257 90.1598 65.1093C90.0835 65.293 89.9717 65.4597 89.8309 65.6L88.151 67.28C88.0107 67.4209 87.844 67.5327 87.6604 67.609C87.4768 67.6853 87.28 67.7245 87.0811 67.7245C86.8823 67.7245 86.6855 67.6853 86.5019 67.609C86.3183 67.5327 86.1515 67.4209 86.0113 67.28L84.2514 65.52C83.88 65.7169 83.4876 65.8712 83.0816 65.98V68.45C83.0739 68.8375 82.9166 69.2069 82.6426 69.481C82.3686 69.755 81.9991 69.9123 81.6117 69.92ZM79.5519 68.08H81.2717V65.73C81.2622 65.4158 81.3544 65.1068 81.5346 64.8492C81.7147 64.5915 81.9732 64.3989 82.2716 64.3C82.7291 64.18 83.1668 63.9947 83.5715 63.75C83.851 63.5904 84.1756 63.5284 84.4942 63.5737C84.8128 63.6189 85.1073 63.7689 85.3313 64L87.0511 65.68L88.271 64.46L86.5912 62.78C86.3598 62.5478 86.2102 62.2466 86.1651 61.9218C86.12 61.5971 86.1819 61.2665 86.3412 60.98C86.5485 60.5572 86.7321 60.1232 86.8912 59.68C86.9944 59.3725 87.192 59.1054 87.456 58.9168C87.7199 58.7283 88.0366 58.6279 88.361 58.63H90.7108V56.91H88.371C88.0578 56.9148 87.7511 56.8208 87.4944 56.6412C87.2377 56.4617 87.0441 56.2059 86.9412 55.91C86.7993 55.4603 86.6152 55.025 86.3912 54.61C86.2317 54.3305 86.1696 54.0059 86.2149 53.6872C86.2602 53.3686 86.4101 53.074 86.6412 52.85L88.321 51.17L87.1011 49.9L85.4213 51.58C85.196 51.8076 84.9044 51.9582 84.5884 52.0103C84.2724 52.0624 83.948 52.0133 83.6615 51.87C83.2466 51.646 82.8113 51.4618 82.3616 51.32C82.0458 51.2252 81.7691 51.0308 81.5727 50.7659C81.3763 50.501 81.2707 50.1798 81.2717 49.85V47.5H79.5519V49.85C79.5614 50.1643 79.4692 50.4732 79.2891 50.7308C79.1089 50.9885 78.8504 51.1811 78.552 51.28C78.0946 51.4 77.6568 51.5853 77.2522 51.83C76.9693 51.9768 76.6477 52.0317 76.3322 51.9868C76.0167 51.942 75.7231 51.7998 75.4923 51.58L73.7625 49.9L72.5427 51.12L74.2225 52.8C74.4553 53.0314 74.6059 53.3327 74.6511 53.6578C74.6962 53.983 74.6335 54.314 74.4725 54.6C74.2673 55.0037 74.0999 55.4255 73.9725 55.86C73.8836 56.1793 73.6908 56.4599 73.4246 56.6573C73.1584 56.8547 72.834 56.9577 72.5027 56.95H70.1529V58.67H72.5027C72.8186 58.652 73.1315 58.7408 73.3908 58.9222C73.6502 59.1036 73.841 59.367 73.9325 59.67C74.0525 60.1275 74.2377 60.5653 74.4825 60.97C74.6402 61.2569 74.7011 61.5871 74.6561 61.9115C74.611 62.2358 74.4624 62.5369 74.2325 62.77L72.5527 64.5L73.7725 65.72L75.4524 64.04C75.6799 63.801 75.9818 63.6462 76.3086 63.6008C76.6355 63.5554 76.9681 63.6221 77.2522 63.79C77.6527 64.0019 78.0752 64.1696 78.512 64.29C78.8278 64.3848 79.1046 64.5792 79.301 64.8441C79.4974 65.109 79.6029 65.4302 79.6019 65.76V68.07L79.5519 68.08Z" fill="#1BE6E1"/>
<path d="M80.4323 62.29C79.5517 62.29 78.691 62.0288 77.959 61.5394C77.227 61.0499 76.6566 60.3544 76.3201 59.5406C75.9836 58.7269 75.896 57.8317 76.0685 56.9682C76.2411 56.1047 76.6659 55.3118 77.2892 54.6899C77.9126 54.0679 78.7064 53.6449 79.5703 53.4743C80.4342 53.3037 81.3292 53.3933 82.1422 53.7316C82.9551 54.07 83.6494 54.6419 84.1372 55.375C84.625 56.1081 84.8843 56.9695 84.8823 57.85C84.8796 59.0285 84.4096 60.1578 83.5754 60.9902C82.7411 61.8226 81.6108 62.29 80.4323 62.29V62.29ZM80.4323 55.2C79.9093 55.1961 79.3969 55.3475 78.9602 55.6352C78.5234 55.9228 78.1819 56.3338 77.979 56.8158C77.7761 57.2978 77.721 57.8293 77.8206 58.3427C77.9202 58.8561 78.17 59.3284 78.5384 59.6996C78.9068 60.0708 79.3772 60.3242 79.8899 60.4277C80.4025 60.5312 80.9343 60.4801 81.4179 60.2809C81.9015 60.0817 82.315 59.7433 82.6059 59.3088C82.8969 58.8742 83.0523 58.363 83.0523 57.84C83.0549 57.4943 82.9891 57.1514 82.8586 56.8312C82.7281 56.5111 82.5356 56.2199 82.292 55.9745C82.0485 55.729 81.7587 55.5343 81.4396 55.4013C81.1204 55.2684 80.778 55.2 80.4323 55.2V55.2Z" fill="#1BE6E1"/>
<path d="M25.4476 10.6999C25.6182 10.8602 25.8435 10.9494 26.0776 10.9494C26.3117 10.9494 26.537 10.8602 26.7076 10.6999L28.0576 9.39988L29.3976 10.7399C29.5682 10.9002 29.7935 10.9894 30.0276 10.9894C30.2617 10.9894 30.487 10.9002 30.6576 10.7399C30.748 10.6574 30.8201 10.557 30.8695 10.4451C30.9189 10.3332 30.9444 10.2122 30.9444 10.0899C30.9444 9.96755 30.9189 9.84657 30.8695 9.73465C30.8201 9.62274 30.748 9.52234 30.6576 9.43988L29.3076 8.05988L30.6476 6.71988C30.7343 6.63452 30.8033 6.53293 30.8507 6.4209C30.8981 6.30887 30.923 6.1886 30.9239 6.06695C30.9248 5.94531 30.9018 5.82467 30.8561 5.71193C30.8104 5.59919 30.743 5.49655 30.6576 5.40988C30.5722 5.32321 30.4706 5.2542 30.3586 5.20679C30.2466 5.15938 30.1263 5.1345 30.0047 5.13357C29.883 5.13264 29.7624 5.15568 29.6496 5.20138C29.5369 5.24707 29.4343 5.31452 29.3476 5.39988L28.0576 6.75988L26.6676 5.39988C26.493 5.2389 26.2628 5.1517 26.0253 5.15653C25.7879 5.16136 25.5615 5.25785 25.3935 5.4258C25.2256 5.59375 25.1291 5.82016 25.1242 6.05763C25.1194 6.2951 25.2066 6.52524 25.3676 6.69988L26.7076 8.03988L25.3676 9.39988C25.2344 9.59457 25.1699 9.82815 25.1844 10.0636C25.1989 10.2991 25.2915 10.523 25.4476 10.6999V10.6999Z" fill="#1A0B4C"/>
<path d="M92.8905 26.7601V7.63006C92.8826 5.60889 92.0763 3.67276 90.6472 2.24356C89.2182 0.814369 87.2823 0.00795988 85.2613 5.94509e-05H26.6174C25.6144 -0.00390802 24.6206 0.190739 23.6932 0.572778C22.7658 0.954816 21.9231 1.51669 21.2139 2.22599C20.5047 2.93529 19.9429 3.77799 19.5609 4.7055C19.1789 5.633 18.9843 6.62696 18.9882 7.63006V77.4001C18.9961 79.4212 19.8024 81.3574 21.2315 82.7866C22.6605 84.2158 24.5965 85.0222 26.6174 85.0301H62.9436C63.245 86.8061 64.1634 88.4189 65.5371 89.5841C66.9108 90.7494 68.6516 91.3925 70.4529 91.4001H90.3708C91.38 91.4027 92.3797 91.2059 93.3126 90.8208C94.2455 90.4358 95.0931 89.8702 95.8067 89.1565C96.5203 88.4428 97.0858 87.5952 97.4708 86.6622C97.8558 85.7292 98.0526 84.7294 98.05 83.7201V33.9801C98.0552 32.3946 97.5658 30.8469 96.65 29.5527C95.7341 28.2585 94.4374 27.2823 92.9405 26.7601H92.8905ZM26.6174 1.80006H85.2513C86.7877 1.80006 88.2613 2.40975 89.3486 3.4953C90.4359 4.58085 91.0481 6.05354 91.0507 7.59006V12.2901H20.838V7.63006C20.8327 6.09087 21.4383 4.61247 22.5219 3.51942C23.6054 2.42637 25.0784 1.808 26.6174 1.80006V1.80006ZM20.838 77.4001V14.1801H91.0507V26.4001C90.8407 26.4001 90.5908 26.4001 90.3808 26.4001H70.4929C68.4719 26.408 66.536 27.2144 65.1069 28.6436C63.6779 30.0728 62.8715 32.0089 62.8636 34.0301V83.2301H26.6174C25.855 83.2274 25.1006 83.0745 24.3973 82.78C23.694 82.4854 23.0557 82.0551 22.5189 81.5136C21.9821 80.9721 21.5574 80.3301 21.2689 79.6242C20.9805 78.9184 20.8341 78.1626 20.838 77.4001V77.4001ZM96.1602 83.6901C96.1575 85.2249 95.5467 86.696 94.4616 87.7813C93.3764 88.8666 91.9054 89.4774 90.3708 89.4801H70.4529C68.9182 89.4774 67.4472 88.8666 66.3621 87.7813C65.2769 86.696 64.6661 85.2249 64.6635 83.6901V33.9801C64.6661 32.4453 65.2769 30.9741 66.3621 29.8888C67.4472 28.8036 68.9182 28.1927 70.4529 28.1901H70.5329C70.5536 28.7543 70.7923 29.2884 71.1989 29.6801C71.6055 30.0718 72.1481 30.2904 72.7126 30.2901H88.101C88.6655 30.2904 89.2082 30.0718 89.6147 29.6801C90.0213 29.2884 90.2601 28.7543 90.2808 28.1901H90.3608C91.8954 28.1927 93.3664 28.8036 94.4516 29.8888C95.5367 30.9741 96.1475 32.4453 96.1502 33.9801V83.6801L96.1602 83.6901Z" fill="#1A0B4C"/>
<path d="M32.3668 28.02C32.2964 27.9393 32.2096 27.8747 32.1122 27.8304C32.0147 27.7861 31.9089 27.7632 31.8019 27.7632C31.6949 27.7632 31.5891 27.7861 31.4916 27.8304C31.3942 27.8747 31.3073 27.9393 31.237 28.02L26.5374 32.72C26.4568 32.7903 26.3922 32.8772 26.3479 32.9746C26.3036 33.0721 26.2807 33.1779 26.2807 33.285C26.2807 33.392 26.3036 33.4978 26.3479 33.5953C26.3922 33.6927 26.4568 33.7796 26.5374 33.85L31.237 38.55C31.3134 38.6292 31.4051 38.6922 31.5064 38.7353C31.6078 38.7783 31.7168 38.8005 31.8269 38.8005C31.937 38.8005 32.046 38.7783 32.1474 38.7353C32.2487 38.6922 32.3404 38.6292 32.4168 38.55C32.4975 38.4796 32.5621 38.3927 32.6064 38.2953C32.6507 38.1978 32.6736 38.092 32.6736 37.985C32.6736 37.8779 32.6507 37.7721 32.6064 37.6746C32.5621 37.5772 32.4975 37.4903 32.4168 37.42L28.3073 33.31L32.4168 29.2C32.563 29.0351 32.6396 28.82 32.6302 28.5999C32.6209 28.3797 32.5265 28.1718 32.3668 28.02ZM50.9449 32.72L46.2454 28.02C46.175 27.9393 46.0882 27.8747 45.9907 27.8304C45.8933 27.7861 45.7875 27.7632 45.6805 27.7632C45.5734 27.7632 45.4676 27.7861 45.3702 27.8304C45.2727 27.8747 45.1859 27.9393 45.1155 28.02C45.0402 28.0935 44.9804 28.1814 44.9396 28.2784C44.8987 28.3755 44.8777 28.4797 44.8777 28.585C44.8777 28.6902 44.8987 28.7944 44.9396 28.8915C44.9804 28.9885 45.0402 29.0764 45.1155 29.15L49.2251 33.26L45.1155 37.4C45.0349 37.4703 44.9702 37.5572 44.926 37.6546C44.8817 37.7521 44.8588 37.8579 44.8588 37.965C44.8588 38.072 44.8817 38.1778 44.926 38.2753C44.9702 38.3727 45.0349 38.4596 45.1155 38.53C45.192 38.6092 45.2836 38.6722 45.385 38.7153C45.4863 38.7583 45.5953 38.7805 45.7055 38.7805C45.8156 38.7805 45.9246 38.7583 46.0259 38.7153C46.1273 38.6722 46.2189 38.6092 46.2954 38.53L50.9949 33.83C51.0706 33.757 51.1299 33.6688 51.1689 33.5711C51.2078 33.4735 51.2255 33.3687 51.2208 33.2636C51.2161 33.1586 51.189 33.0558 51.1414 32.9621C51.0939 32.8683 51.0269 32.7858 50.9449 32.72V32.72ZM42.6458 27.94C42.4715 27.8182 42.2571 27.7679 42.0469 27.7995C41.8367 27.8312 41.6466 27.9423 41.5159 28.11L34.6766 37.51C34.5548 37.6842 34.5046 37.8986 34.5362 38.1089C34.5678 38.3191 34.6789 38.5092 34.8466 38.64C34.9817 38.7372 35.1407 38.7959 35.3065 38.81C35.4364 38.8062 35.5638 38.7738 35.6796 38.715C35.7954 38.6563 35.8968 38.5726 35.9765 38.47L42.7758 29.07C42.842 28.9875 42.8911 28.8926 42.9205 28.791C42.9498 28.6894 42.9586 28.5829 42.9466 28.4778C42.9345 28.3727 42.9017 28.2711 42.85 28.1788C42.7984 28.0864 42.729 28.0053 42.6458 27.94V27.94Z" fill="#1A0B4C"/>
<path d="M32.1568 59.86H53.1547C53.3986 59.86 53.6326 59.7631 53.8051 59.5906C53.9776 59.418 54.0746 59.184 54.0746 58.94C54.0746 58.696 53.9776 58.462 53.8051 58.2895C53.6326 58.1169 53.3986 58.02 53.1547 58.02H32.1568C31.9129 58.02 31.6789 58.1169 31.5064 58.2895C31.3339 58.462 31.2369 58.696 31.2369 58.94C31.2369 59.184 31.3339 59.418 31.5064 59.5906C31.6789 59.7631 31.9129 59.86 32.1568 59.86V59.86ZM53.1547 64.93H26.8774C26.6334 64.93 26.3994 65.0269 26.2269 65.1995C26.0544 65.372 25.9575 65.606 25.9575 65.85C25.9575 66.094 26.0544 66.328 26.2269 66.5006C26.3994 66.6731 26.6334 66.77 26.8774 66.77H53.1747C53.4178 66.7674 53.6503 66.6697 53.8222 66.4977C53.9942 66.3257 54.092 66.0932 54.0946 65.85C54.0749 65.604 53.965 65.3739 53.7859 65.2041C53.6069 65.0343 53.3713 64.9366 53.1247 64.93H53.1547ZM53.1547 71.85H26.8774C26.6334 71.85 26.3994 71.9469 26.2269 72.1195C26.0544 72.292 25.9575 72.526 25.9575 72.77C25.9575 73.014 26.0544 73.248 26.2269 73.4206C26.3994 73.5931 26.6334 73.69 26.8774 73.69H53.1747C53.4178 73.6874 53.6503 73.5897 53.8222 73.4177C53.9942 73.2457 54.092 73.0132 54.0946 72.77C54.0749 72.524 53.965 72.2939 53.7859 72.1241C53.6069 71.9543 53.3713 71.8566 53.1247 71.85H53.1547Z" fill="#A9AEFF"/>
<path d="M27.6675 60.65C28.6174 60.65 29.3875 59.8799 29.3875 58.93C29.3875 57.98 28.6174 57.21 27.6675 57.21C26.7176 57.21 25.9475 57.98 25.9475 58.93C25.9475 59.8799 26.7176 60.65 27.6675 60.65Z" fill="#1BE6E1"/>
</g>
<defs>
<clipPath id="clip0">
<rect width="96" height="100" fill="white" transform="translate(2)"/>
</clipPath>
</defs>
</svg>
